<svg version="1.1" xmlns="http://www.w3.org/2000/svg" xmlns:xlink="http://www.w3.org/1999/xlink" width="122.8" height="264.29961" viewBox="0,0,122.8,264.29961"><g transform="translate(-174,-48.00039)"><g data-paper-data="{&quot;isPaintingLayer&quot;:true}" stroke-linecap="butt" stroke-linejoin="miter" stroke-miterlimit="10" stroke-dasharray="" stroke-dashoffset="0" style="mix-blend-mode: normal"><g><path d="M210.5,114.3c4.3,-2.4 3.4,-6.3 3.4,-6.3c-0.5,5 -6.2,1.7 -6.2,1.7c2.4,0.8 3.6,-1.1 3.3,-4c-0.9,0.8 -2.3,0.6 -2.3,0.6c1.7,-0.2 1.6,-2.5 1.1,-4.4c-0.2,-0.3 -0.3,-0.7 -0.5,-1c-2.9,-5.3 3.3,-6.8 3.3,-6.8c-2.7,0.3 -2.2,-4.3 -2.2,-4.3c0,0 0.8,3 3.3,1.2c2.5,-1.8 3.4,-12.4 3.4,-12.4c2.7,-7.1 7.8,-5.7 21.4,-6.5c13.6,-0.8 16,18.3 16.3,21.5c0.6,6.7 5.9,6.2 5.9,6.2c-1.4,2.2 -4.6,1 -4.6,1c0,0 3,1.9 1.2,6.1c0,0 0.2,-1.4 -0.4,-2.6c-0.1,0.7 -0.3,1.5 -0.5,2.3c-0.6,2.5 3.8,4.3 3.8,4.3c-3,1.1 -5.2,-1.7 -5.2,-1.7c0,0 0.9,1.8 2.5,4.6c0.8,1.1 2,1.3 3.1,1.8c0,0 -1.1,0.7 -2.2,0.3c0.4,2.6 -1.9,4.9 -1.9,4.9c1.1,-3.1 -3,-6.2 -3,-6.2c0,0 2.2,3 0.8,5c-1.4,2 0.7,3.9 0.7,3.9c-4.7,-0.9 -4.6,-4.5 -4.6,-4.5c-2.4,2.7 0.7,7.2 0.7,7.2c-3.4,-1 -3.3,-6.2 -3.3,-6.2c0,0 -0.6,3.7 0.4,6c1,2.3 -1.7,3.9 -1.7,3.9c0,0 1.6,-1.8 -1,-3.2c-1.7,-0.9 -2.3,-2.8 -2.5,-4c0.2,3.9 -3.2,5.3 -3.2,5.3c1.6,-1.8 -0.1,-6.2 -0.1,-6.2c0,0 0.4,3.1 -1.2,5.1c-1.6,2 0.6,4.7 0.6,4.7c-2.5,-1 -3,-3.1 -3,-3.1c-0.6,2.1 0.6,4.5 0.6,4.5c0,0 -4.4,-2.6 -3.4,-6.4c1,-3.8 -2,-6.2 -2,-6.2c0,0 1.2,2.6 -1,6c-2.1,3.4 0.3,5.1 0.3,5.1c-4.2,-1.5 -5,-6 -5,-6c-0.3,7.5 -7.1,4.7 -7.1,4.7c1.4,-0.2 4.2,-4.2 1,-5c-1.6,-0.4 -2.1,-1.2 -2.2,-1.8c0.1,2.3 2.2,3.6 2.2,3.6c-9.1,0.1 -7.4,-6.4 -7.4,-6.4c-3.5,2.3 -0.5,5 -0.5,5c-5,-0.6 -5.4,-8.9 -1.1,-11.3z" fill="#261c17" fill-rule="nonzero" stroke="none" stroke-width="1"/><path d="M215.8,86.9c0,0 -0.1,0.6 -0.3,1.4c-0.2,0.8 -0.7,1.9 -1.4,2.8c-0.2,0.2 -0.4,0.4 -0.7,0.6c-0.3,0.2 -0.6,0.3 -0.9,0.2c-0.3,0 -0.6,-0.2 -0.8,-0.3c-0.2,-0.2 -0.4,-0.4 -0.5,-0.5c-0.3,-0.4 -0.4,-0.7 -0.5,-0.9c-0.1,-0.2 -0.1,-0.4 -0.1,-0.4c0,0 0.1,0.1 0.2,0.3c0.1,0.2 0.4,0.5 0.7,0.7c0.3,0.3 0.7,0.5 1.1,0.5c0.4,0 0.8,-0.3 1.1,-0.7c0.7,-0.8 1.2,-1.8 1.6,-2.5c0.2,-0.7 0.5,-1.2 0.5,-1.2z" fill="#120d0b" fill-rule="nonzero" stroke="none" stroke-width="1"/><path d="M212.7,94.1c0,0 -0.4,0.2 -1.1,0.6c-0.6,0.3 -1.4,0.8 -2,1.5c-0.2,0.1 -0.3,0.3 -0.4,0.5c-0.1,0.2 -0.2,0.4 -0.3,0.5c-0.1,0.4 -0.2,0.8 -0.2,1.1c0,0.2 0,0.3 0,0.5c0,0.1 0.1,0.3 0.1,0.4c0,0.2 0.1,0.3 0.1,0.3c0,0 -0.1,-0.1 -0.2,-0.3c-0.1,-0.2 -0.3,-0.4 -0.4,-0.8c-0.1,-0.2 -0.1,-0.4 -0.1,-0.6c0,-0.2 0,-0.5 0.1,-0.7c0,-0.2 0.2,-0.5 0.3,-0.7c0.2,-0.2 0.3,-0.4 0.5,-0.6c0.2,-0.2 0.4,-0.4 0.6,-0.5c0.2,-0.2 0.4,-0.3 0.6,-0.4c0.4,-0.2 0.8,-0.4 1.2,-0.5c0.7,-0.3 1.2,-0.3 1.2,-0.3z" fill="#120d0b" fill-rule="nonzero" stroke="none" stroke-width="1"/><path d="M207.7,109.7c0,0 0.1,0 0.3,0c0.2,0 0.4,0.1 0.7,0c0.3,0 0.6,-0.1 0.9,-0.2c0.1,-0.1 0.3,-0.2 0.4,-0.3l0.2,-0.2l0.1,-0.2c0.1,-0.1 0.1,-0.3 0.2,-0.5c0.1,-0.2 0.1,-0.4 0.1,-0.5c0.1,-0.4 0.1,-0.7 0.2,-1c0.1,-0.6 0.1,-1 0.1,-1c0,0 0.1,0.4 0.2,1c0,0.3 0.1,0.7 0,1.1c0,0.2 0,0.4 -0.1,0.6c-0.1,0.2 -0.1,0.4 -0.2,0.6l-0.2,0.3l-0.2,0.3c-0.2,0.2 -0.4,0.3 -0.6,0.4c-0.2,0.1 -0.4,0.1 -0.6,0.1c-0.2,0 -0.4,0 -0.5,0c-0.3,-0.1 -0.6,-0.2 -0.7,-0.3c-0.2,-0.1 -0.3,-0.2 -0.3,-0.2z" fill="#120d0b" fill-rule="nonzero" stroke="none" stroke-width="1"/><path d="M212.1,113.4c0,0 -0.2,0.1 -0.6,0.4c-0.4,0.2 -0.9,0.6 -1.4,1.1c-0.3,0.3 -0.6,0.5 -0.8,0.9c-0.3,0.3 -0.5,0.7 -0.7,1.1c-0.1,0.2 -0.2,0.4 -0.3,0.6c-0.2,0.3 -0.3,0.5 -0.3,0.7l-0.2,0.8c0,0.2 0,0.5 0,0.7c0,0.2 0,0.5 0,0.7c0,0.2 0,0.5 0.1,0.7c0.1,0.5 0.2,0.9 0.4,1.4c0.2,0.4 0.4,0.8 0.6,1.2c0.2,0.4 0.5,0.7 0.7,0.9c0.5,0.5 1.1,0.8 1.5,0.9c0.4,0.1 0.7,0.1 0.7,0.1c0,0 -0.3,0.1 -0.7,0c-0.4,-0.1 -1.1,-0.2 -1.7,-0.8c-0.3,-0.2 -0.6,-0.6 -0.9,-0.9c-0.3,-0.4 -0.5,-0.8 -0.7,-1.2c-0.2,-0.4 -0.4,-0.9 -0.5,-1.4c-0.1,-0.2 -0.1,-0.5 -0.1,-0.8c0,-0.3 -0.1,-0.5 -0.1,-0.8c0,-0.3 0,-0.5 0,-0.8c0.1,-0.3 0.1,-0.5 0.2,-0.8c0.1,-0.2 0.2,-0.5 0.3,-0.7c0.1,-0.2 0.2,-0.5 0.3,-0.7c0.3,-0.4 0.6,-0.8 0.9,-1.1c0.3,-0.3 0.6,-0.6 0.9,-0.9c0.6,-0.5 1.2,-0.8 1.6,-1c0.5,-0.2 0.8,-0.3 0.8,-0.3z" fill="#120d0b" fill-rule="nonzero" stroke="none" stroke-width="1"/><path d="M219.8,127c0,0 -0.9,0.2 -2.3,0.1c-0.3,0 -0.7,-0.1 -1.1,-0.2c-0.4,-0.1 -0.8,-0.2 -1.2,-0.4c-0.2,-0.1 -0.4,-0.2 -0.6,-0.3c-0.2,-0.1 -0.4,-0.2 -0.6,-0.4l-0.6,-0.5c-0.2,-0.2 -0.3,-0.4 -0.5,-0.6l-0.2,-0.3c-0.1,-0.1 -0.1,-0.2 -0.1,-0.3l-0.3,-0.7c-0.1,-0.5 -0.2,-0.9 -0.2,-1.4c0,-0.4 0,-0.9 0.1,-1.3c0.1,-0.4 0.2,-0.8 0.3,-1.1c0.1,-0.3 0.2,-0.6 0.3,-0.9c0.1,-0.3 0.2,-0.5 0.3,-0.7c0.2,-0.4 0.3,-0.6 0.3,-0.6c0,0 -0.1,0.2 -0.2,0.6c-0.1,0.4 -0.3,0.9 -0.4,1.6c-0.1,0.3 -0.1,0.7 -0.2,1.1c0,0.4 0,0.8 0,1.2c0,0.4 0.1,0.8 0.2,1.2l0.3,0.6c0,0.1 0.1,0.2 0.1,0.3l0.2,0.3c0.1,0.2 0.2,0.4 0.4,0.5l0.5,0.4c0.2,0.1 0.4,0.2 0.5,0.3c0.2,0.1 0.4,0.2 0.6,0.3c0.4,0.2 0.8,0.3 1.1,0.4c0.4,0.1 0.7,0.2 1.1,0.3c1.3,0.5 2.2,0.5 2.2,0.5z" fill="#120d0b" fill-rule="nonzero" stroke="none" stroke-width="1"/><path d="M212,101.4c0.6,5.8 -3.3,4.9 -3.3,4.9" fill="none" fill-rule="evenodd" stroke="#120d0b" stroke-width="0.1951"/><path d="M212.7,118.4c0,0 0.1,-0.6 0.4,-1.2c0.2,-0.6 0.6,-1.1 0.6,-1.1c0,0 -0.1,0.6 -0.4,1.2c-0.2,0.6 -0.6,1.1 -0.6,1.1z" fill="#120d0b" fill-rule="nonzero" stroke="none" stroke-width="1"/><path d="M212.9,116.5c0,0 0.1,-0.5 0.3,-0.9c0.2,-0.4 0.5,-0.8 0.5,-0.8c0,0 -0.1,0.5 -0.3,0.9c-0.2,0.4 -0.5,0.8 -0.5,0.8z" fill="#120d0b" fill-rule="nonzero" stroke="none" stroke-width="1"/><path d="M212.6,101.8c0,0 -0.1,-0.4 -0.2,-0.8c-0.1,-0.4 0,-0.8 0,-0.8c0,0 0.1,0.4 0.2,0.8c0.1,0.3 0,0.8 0,0.8z" fill="#120d0b" fill-rule="nonzero" stroke="none" stroke-width="1"/><path d="M213.3,100.9c0,0 -0.2,-0.4 -0.3,-0.8c-0.1,-0.4 -0.1,-0.8 -0.1,-0.8c0,0 0.2,0.4 0.3,0.8c0.1,0.4 0.1,0.8 0.1,0.8z" fill="#120d0b" fill-rule="nonzero" stroke="none" stroke-width="1"/><path d="M215.2,93.5c0,0 -0.3,0.3 -0.8,0.5c-0.3,0.1 -0.6,0.3 -0.9,0.4c-0.4,0.1 -0.8,0.1 -1.2,0.1c-0.4,-0.1 -0.8,-0.2 -1.1,-0.5c-0.2,-0.1 -0.3,-0.3 -0.3,-0.4c-0.1,-0.1 -0.1,-0.3 -0.2,-0.4c-0.1,-0.3 -0.1,-0.5 -0.1,-0.7c0,-0.2 0,-0.3 0,-0.3c0,0 0,0.1 0.1,0.2c0,0.1 0.1,0.2 0.1,0.3c0,0.1 0.1,0.2 0.2,0.3c0.1,0.2 0.3,0.5 0.6,0.6c0.1,0.1 0.3,0.1 0.4,0.2c0.1,0.1 0.3,0.1 0.4,0.1c0.3,0.1 0.7,0 1,0c0.3,0 0.6,-0.1 0.9,-0.1c0.5,-0.2 0.9,-0.3 0.9,-0.3z" fill="#120d0b" fill-rule="nonzero" stroke="none" stroke-width="1"/><path d="M260.4,110.8c0,0 -0.5,0.3 -1.4,0.3c-0.2,0 -0.5,0 -0.7,0c-0.3,0 -0.5,-0.1 -0.8,-0.1c-0.3,-0.1 -0.6,-0.2 -0.8,-0.3c-0.3,-0.1 -0.5,-0.3 -0.8,-0.5c-0.2,-0.2 -0.4,-0.4 -0.6,-0.7c-0.2,-0.2 -0.3,-0.5 -0.4,-0.7c-0.1,-0.3 -0.2,-0.5 -0.3,-0.7c-0.1,-0.2 -0.1,-0.5 -0.1,-0.7c-0.1,-0.4 -0.1,-0.8 -0.1,-1c0,-0.2 0,-0.4 0,-0.4c0,0 0.1,0.1 0.1,0.4c0.1,0.2 0.1,0.6 0.3,1c0.1,0.2 0.2,0.4 0.2,0.6c0.1,0.2 0.2,0.4 0.3,0.6c0.1,0.2 0.3,0.4 0.4,0.6c0.2,0.2 0.3,0.4 0.5,0.5c0.4,0.3 0.9,0.6 1.3,0.7c0.2,0.1 0.5,0.2 0.7,0.2c0.2,0 0.4,0.1 0.6,0.1c0.4,0 0.8,0.1 1,0c0.4,0.1 0.6,0.1 0.6,0.1z" fill="#120d0b" fill-rule="nonzero" stroke="none" stroke-width="1"/><path d="M257.4,106.8c0,0 0.1,-0.5 0.2,-1.3c0,-0.4 0.1,-0.8 0,-1.3c0,-0.5 -0.1,-0.9 -0.3,-1.4c-0.1,-0.2 -0.2,-0.4 -0.3,-0.6c-0.1,-0.2 -0.3,-0.4 -0.4,-0.6c-0.1,-0.2 -0.3,-0.3 -0.4,-0.5c-0.1,-0.2 -0.3,-0.3 -0.5,-0.4c-0.3,-0.3 -0.6,-0.4 -0.7,-0.5c-0.2,-0.1 -0.3,-0.2 -0.3,-0.2c0,0 0.1,0 0.3,0.1c0.2,0.1 0.5,0.1 0.9,0.3c0.2,0.1 0.4,0.2 0.6,0.3c0.2,0.1 0.4,0.3 0.6,0.5c0.2,0.2 0.4,0.4 0.5,0.6c0.1,0.2 0.3,0.5 0.4,0.7c0.2,0.5 0.3,1.1 0.2,1.6c0,0.5 -0.1,1 -0.2,1.3c-0.3,1 -0.6,1.4 -0.6,1.4z" fill="#120d0b" fill-rule="nonzero" stroke="none" stroke-width="1"/><path d="M260.8,99.8c0,0 -0.1,0 -0.4,0.1c-0.3,0 -0.7,0 -1.1,0c-0.2,0 -0.5,-0.1 -0.7,-0.2c-0.2,-0.1 -0.5,-0.2 -0.8,-0.3c-0.3,-0.1 -0.5,-0.3 -0.8,-0.5c-0.3,-0.2 -0.5,-0.4 -0.7,-0.6c-0.2,-0.3 -0.4,-0.5 -0.5,-0.8c-0.1,-0.3 -0.3,-0.5 -0.4,-0.8c-0.1,-0.3 -0.2,-0.5 -0.3,-0.8c0,-0.3 -0.1,-0.5 -0.1,-0.7c-0.1,-0.4 0,-0.8 -0.1,-1.1c0,-0.3 0,-0.4 0,-0.4c0,0 0,0.1 0.1,0.4c0.1,0.3 0.1,0.6 0.3,1c0.1,0.2 0.1,0.4 0.2,0.7c0.1,0.2 0.2,0.5 0.3,0.7c0.1,0.3 0.3,0.5 0.4,0.7c0.1,0.2 0.3,0.4 0.5,0.7c0.2,0.2 0.4,0.4 0.6,0.6c0.2,0.2 0.4,0.3 0.7,0.5c0.2,0.2 0.5,0.2 0.7,0.4c0.2,0.1 0.4,0.2 0.7,0.2c0.4,0.1 0.8,0.2 1,0.3c0.3,-0.1 0.4,-0.1 0.4,-0.1z" fill="#120d0b" fill-rule="nonzero" stroke="none" stroke-width="1"/><path d="M260.7,115.6c0,0 -0.3,0.3 -1,0.4c-0.2,0 -0.3,0.1 -0.5,0.1c-0.2,0 -0.4,0 -0.6,0c-0.2,0 -0.4,-0.1 -0.6,-0.2c-0.2,-0.1 -0.4,-0.2 -0.6,-0.3c-0.4,-0.3 -0.7,-0.6 -0.9,-0.9c-0.2,-0.3 -0.4,-0.7 -0.5,-1c-0.1,-0.3 -0.1,-0.6 -0.2,-0.7c0,-0.2 0,-0.3 0,-0.3c0,0 0.1,0.1 0.2,0.2c0.1,0.2 0.2,0.4 0.4,0.6c0.1,0.1 0.2,0.3 0.3,0.4c0.1,0.1 0.2,0.3 0.3,0.4c0.1,0.1 0.3,0.3 0.4,0.4c0.1,0.1 0.3,0.2 0.4,0.3c0.2,0.1 0.3,0.2 0.5,0.3c0.2,0.1 0.3,0.1 0.5,0.2c0.3,0.1 0.7,0.1 1,0.1c0.3,0 0.6,0 0.7,0c0,0.1 0.2,0 0.2,0z" fill="#120d0b" fill-rule="nonzero" stroke="none" stroke-width="1"/><path d="M253.7,106.6c0,0 -0.1,-0.3 -0.1,-0.7c0,-0.4 0.1,-0.7 0.1,-0.7c0,0 0.1,0.3 0.1,0.7c-0.1,0.3 -0.1,0.7 -0.1,0.7z" fill="#120d0b" fill-rule="nonzero" stroke="none" stroke-width="1"/><path d="M252.7,104.4c0,0 0.1,0.3 0.1,0.6c0,0.3 -0.1,0.6 -0.1,0.6c0,0 -0.1,-0.3 -0.1,-0.6c0.1,-0.3 0.1,-0.6 0.1,-0.6z" fill="#120d0b" fill-rule="nonzero" stroke="none" stroke-width="1"/><path d="M254.7,100.8c0,0 -0.3,-0.1 -0.5,-0.2c-0.2,-0.1 -0.4,-0.4 -0.4,-0.4c0,0 0.3,0.1 0.5,0.2c0.3,0.2 0.4,0.4 0.4,0.4z" fill="#120d0b" fill-rule="nonzero" stroke="none" stroke-width="1"/></g><g fill-rule="nonzero" stroke="none" stroke-width="1"><g><path d="M275.4,189.3c0,0 3.2,0.9 5.3,5.5c1.5,3.1 3.6,5.1 2.7,5.7c-1.6,1.1 -3.7,-3.8 -3.7,-3.8c0,0 0.9,4.7 1,6.2c0.2,1.5 0.2,4.5 -0.4,4.9c-1,0.6 -1.1,-1.2 -1.5,-4.4c0,0 0.1,2.7 -0.4,4.2c-0.4,1.2 -1.5,1.8 -1.9,0.2c0,0 -0.6,2.6 -2.1,-0.1c0,0 -1.6,1.6 -1.8,-5.2c0,-2.9 -5.9,-13.3 2.8,-13.2z" fill="#875137"/><path d="M274.5,207.7c0,0 0,-0.5 0,-1.2c0,-0.7 0,-1.7 -0.1,-2.7c0,-1 -0.1,-1.9 -0.1,-2.7c0,-0.7 0,-1.2 0,-1.2c0,0 0.2,0.5 0.4,1.2c0.2,0.7 0.3,1.7 0.4,2.7c0,1 0,2 -0.2,2.7c-0.2,0.7 -0.4,1.2 -0.4,1.2z" fill="#613a27"/><path d="M276.7,208.2c0,0 0,-0.5 0,-1.3c0,-0.8 0,-1.8 -0.1,-2.8c0,-1 -0.1,-2.1 -0.2,-2.8c0,-0.4 0,-0.7 -0.1,-0.9c0,-0.2 0,-0.4 0,-0.4c0,0 0.2,0.5 0.4,1.2c0.2,0.8 0.4,1.8 0.5,2.9c0,1.1 0,2.1 -0.2,2.9c-0.1,0.7 -0.3,1.2 -0.3,1.2z" fill="#613a27"/><path d="M278.9,205.4c0,0 -0.1,-0.4 -0.2,-1c-0.1,-0.6 -0.1,-1.4 -0.2,-2.2c0,-0.8 -0.1,-1.6 -0.1,-2.2c0,-0.3 0,-0.6 0,-0.7c0,-0.2 0,-0.3 0,-0.3c0,0 0.2,0.4 0.4,0.9c0.2,0.6 0.3,1.4 0.4,2.2c0,0.8 0,1.6 -0.1,2.2c-0.1,0.7 -0.2,1.1 -0.2,1.1z" fill="#613a27"/><path d="M276.4,189.9c0,0 0.1,0 0.3,0c0.2,0 0.5,0.1 0.7,0.3c0.6,0.3 1.2,0.9 1.7,1.6c0.5,0.7 0.9,1.4 1.2,2c0.3,0.6 0.4,1 0.4,1c0,0 -0.3,-0.3 -0.7,-0.8c-0.4,-0.5 -0.9,-1.1 -1.4,-1.8c-0.5,-0.6 -1,-1.3 -1.4,-1.7c-0.2,-0.2 -0.4,-0.4 -0.6,-0.5c-0.1,-0.1 -0.2,-0.1 -0.2,-0.1z" fill="#613a27"/><path d="M279.7,196.6c0,0 -0.3,0.1 -0.9,0.2c-0.5,0 -1.3,-0.2 -1.9,-0.5c-0.3,-0.2 -0.6,-0.4 -0.8,-0.7c-0.2,-0.3 -0.4,-0.5 -0.5,-0.7c-0.1,-0.2 -0.2,-0.4 -0.3,-0.6c-0.1,-0.1 -0.1,-0.2 -0.1,-0.2c0,0 0.1,0.1 0.2,0.2c0.1,0.1 0.3,0.3 0.5,0.4c0.2,0.2 0.4,0.4 0.6,0.6c0.2,0.2 0.5,0.4 0.8,0.5c0.5,0.3 1.2,0.6 1.6,0.7c0.4,0 0.8,0.1 0.8,0.1z" fill="#613a27"/></g><g><g><path d="M265,153.5c3.3,3.9 5.9,15 7.5,22.6c1,4.9 3.4,13.6 3.4,13.6c-0.9,2.1 -2.9,2.1 -4.9,1.9c0,0 -1.9,-3.7 -5.5,-10.8c-3.9,-7.7 -8.6,-21.8 -7.5,-24.8c1.4,-3.6 5.4,-4.5 7,-2.5z" fill="#52b6cc"/><path d="M266.8,156.2c0,0 0.7,1.4 1.5,3.5c0.4,1.1 0.9,2.3 1.3,3.7c0.4,1.4 0.9,2.8 1.3,4.3c0.4,1.5 0.7,2.9 1,4.3c0.2,0.7 0.3,1.4 0.4,2c0.1,0.6 0.2,1.3 0.3,1.8c0.2,1.1 0.3,2.1 0.4,2.7c0.1,0.7 0.1,1 0.1,1c0,0 -0.3,-1.5 -0.8,-3.7c-0.2,-1.1 -0.6,-2.4 -0.9,-3.8c-0.3,-1.4 -0.7,-2.8 -1.1,-4.3c-0.4,-1.5 -0.8,-2.9 -1.2,-4.3c-0.4,-1.4 -0.8,-2.6 -1.1,-3.7c-0.7,-2 -1.2,-3.5 -1.2,-3.5z" fill="#2e83bf"/></g><path d="M270.9,191.2c0,0 -0.3,-0.4 -0.8,-1.2c-0.5,-0.8 -1.1,-1.8 -1.9,-3.2c-0.7,-1.3 -1.6,-2.9 -2.4,-4.6c-0.8,-1.7 -1.7,-3.6 -2.5,-5.5c-0.8,-1.9 -1.5,-3.8 -2.2,-5.6c-0.3,-0.9 -0.6,-1.8 -0.9,-2.6c-0.3,-0.8 -0.5,-1.6 -0.7,-2.4c-0.4,-1.5 -0.7,-2.7 -0.9,-3.6c-0.2,-0.9 -0.3,-1.4 -0.3,-1.4c0,0 0.2,0.5 0.4,1.3c0.1,0.4 0.3,0.9 0.5,1.5c0.2,0.6 0.4,1.3 0.7,2c0.5,1.5 1.1,3.1 1.7,4.9c0.7,1.8 1.4,3.7 2.2,5.6c0.8,1.9 1.6,3.7 2.4,5.5c0.8,1.7 1.6,3.3 2.3,4.7c1.5,2.8 2.4,4.6 2.4,4.6z" fill="#2e83bf"/></g><g><g><path d="M263.5,161.4c-5.5,4.8 -19.6,-33 -14.4,-44.2c5.4,-11.7 12.2,6.6 13.5,11.1c2.9,10.2 6.4,28.3 0.9,33.1z" fill="#52b6cc"/><path d="M260.1,121.5c0,0 0.6,1.4 1.4,3.5c0.4,1.1 0.8,2.3 1.2,3.6c0.4,1.3 0.8,2.8 1.2,4.2c0.4,1.4 0.7,2.9 1,4.3c0.3,1.4 0.5,2.7 0.6,3.8c0.2,1.1 0.2,2 0.3,2.7c0,0.7 0.1,1 0.1,1c0,0 -0.1,-0.4 -0.2,-1c-0.1,-0.6 -0.3,-1.6 -0.5,-2.6c-0.2,-1.1 -0.5,-2.4 -0.8,-3.7c-0.3,-1.4 -0.6,-2.8 -1,-4.2c-0.3,-1.4 -0.7,-2.9 -1.1,-4.2c-0.4,-1.3 -0.7,-2.6 -1.1,-3.7c-0.6,-2.2 -1.1,-3.7 -1.1,-3.7z" fill="#2e83bf"/><path d="M252.5,113.5c0,0 -0.1,0.1 -0.4,0.2c-0.2,0.1 -0.6,0.4 -1,0.7c-0.4,0.4 -0.8,0.8 -1.1,1.5c-0.2,0.3 -0.3,0.7 -0.5,1c-0.1,0.2 -0.2,0.4 -0.2,0.6c-0.1,0.2 -0.1,0.4 -0.2,0.6c-0.3,0.8 -0.4,1.8 -0.6,2.8c-0.1,0.5 -0.1,1 -0.1,1.6c0,0.5 -0.1,1.1 -0.1,1.6c0,1.1 0,2.3 0.2,3.4c0.1,1.2 0.2,2.3 0.4,3.5c0.2,1.2 0.3,2.4 0.6,3.5c0.3,1.1 0.5,2.3 0.7,3.4c0.3,1.1 0.6,2.1 0.8,3.1c0.3,1 0.5,1.9 0.7,2.8c1.1,3.4 1.7,5.7 1.7,5.7c0,0 -0.8,-2.2 -2.1,-5.6c-0.3,-0.9 -0.5,-1.8 -0.8,-2.8c-0.3,-1 -0.6,-2 -0.9,-3.1c-0.3,-1.1 -0.5,-2.2 -0.8,-3.4c-0.3,-1.1 -0.4,-2.3 -0.7,-3.5c-0.2,-1.2 -0.3,-2.4 -0.4,-3.6c-0.1,-1.2 -0.1,-2.3 -0.1,-3.5c0,-0.6 0,-1.1 0.1,-1.7c0.1,-0.5 0.1,-1.1 0.2,-1.6c0.2,-1 0.4,-2 0.7,-2.8c0.1,-0.2 0.1,-0.4 0.2,-0.6c0.1,-0.2 0.2,-0.4 0.3,-0.6c0.2,-0.4 0.3,-0.7 0.6,-1c0.4,-0.6 0.8,-1.1 1.2,-1.4c0.4,-0.3 0.8,-0.5 1,-0.7c0.5,-0.1 0.6,-0.1 0.6,-0.1z" fill="#2e83bf"/></g><g><g><path d="M267.1,129.1c3.5,6.1 0.6,10.4 -7,13.5c-7.6,3.1 -14.7,-1 -14.6,-5c0.2,-7.5 -1,-9.2 1.1,-16.4c2.1,-7.2 5,-8.4 8.3,-7.9c4.5,0.7 8.7,9.7 12.2,15.8z" fill="#6fced9"/><path d="M261.1,118.6c0,0 1.1,1.4 2.6,3.7c0.7,1.2 1.6,2.5 2.4,4c0.8,1.5 1.6,3.1 2.3,4.9c0.3,0.9 0.6,1.8 0.6,2.7c0,0.1 0,0.2 0,0.4v0.3c0,0.2 0,0.4 -0.1,0.7l-0.2,0.7l-0.3,0.6c-0.4,0.8 -1,1.4 -1.6,2c-0.6,0.6 -1.2,1 -1.7,1.4c-1.1,0.8 -2.1,1.3 -2.9,1.7c-0.7,0.4 -1.1,0.5 -1.1,0.5c0,0 0.4,-0.2 1.1,-0.6c0.7,-0.4 1.6,-1 2.7,-1.9c1,-0.8 2.2,-1.9 3,-3.4l0.3,-0.6l0.2,-0.6c0.1,-0.2 0.1,-0.4 0.1,-0.6v-0.3c0,0 0,-0.2 0,-0.3c0,-0.8 -0.3,-1.7 -0.6,-2.6c-0.6,-1.7 -1.4,-3.3 -2.2,-4.8c-0.8,-1.5 -1.5,-2.9 -2.2,-4.1c-1.5,-2.2 -2.4,-3.8 -2.4,-3.8z" fill="#3fadc4"/><path d="M253.5,113.3c0,0 -0.6,-0.1 -1.5,0.2c-0.5,0.1 -1,0.4 -1.5,0.8c-0.5,0.4 -1.1,1 -1.5,1.7c-0.5,0.7 -0.9,1.5 -1.3,2.4c-0.3,0.9 -0.7,1.9 -0.9,2.9c-0.5,2 -0.9,4.3 -0.9,6.5c-0.1,1.1 0,2.3 0,3.4c0,0.6 0,1.1 0,1.7c0,0.3 0,0.6 0,0.9c0,0.3 -0.1,0.5 -0.1,0.8c-0.1,1 -0.1,2 0,3c0.1,0.9 0.5,1.8 0.9,2.5c0.4,0.7 1,1.2 1.5,1.7c0.3,0.2 0.5,0.4 0.8,0.5c0.3,0.1 0.5,0.3 0.7,0.4c0.4,0.2 0.8,0.3 1.1,0.4c0.3,0.1 0.4,0.1 0.4,0.1c0,0 -0.1,0 -0.4,-0.1c-0.3,-0.1 -0.7,-0.1 -1.1,-0.3c-0.2,-0.1 -0.5,-0.2 -0.8,-0.3c-0.3,-0.2 -0.5,-0.3 -0.8,-0.5c-0.6,-0.4 -1.2,-0.9 -1.7,-1.7c-0.5,-0.7 -0.9,-1.6 -1.1,-2.6c-0.2,-1 -0.2,-2.1 -0.1,-3.1c0,-0.3 0.1,-0.5 0.1,-0.8c0,-0.2 0,-0.5 0,-0.8c0,-0.5 0,-1.1 -0.1,-1.7c0,-1.1 -0.1,-2.3 0,-3.4c0.1,-2.3 0.5,-4.6 1,-6.7c0.3,-1 0.6,-2 1,-2.9c0.4,-0.9 0.9,-1.7 1.4,-2.4c0.5,-0.7 1.1,-1.3 1.7,-1.6c0.6,-0.4 1.2,-0.6 1.6,-0.8c0.5,-0.1 0.9,-0.2 1.2,-0.1c0.3,-0.1 0.4,-0.1 0.4,-0.1z" fill="#3fadc4"/></g><path d="M248,136.5c0.2,-3.5 0.6,-9.9 0.6,-9.9c0,0 0.8,3.1 1,7.4c0.4,7.9 5.3,10 5.3,10c-4.2,-1 -7.2,-3.8 -6.9,-7.5z" fill="#52b6cc"/><path d="M260.7,123c0,0 3.6,4.6 5.4,9.6c1.8,5 -2.4,8.3 -2.4,8.3c3.6,-5.6 -3,-17.9 -3,-17.9z" fill="#52b6cc"/><path d="M257.7,143.8c0,0 -4.4,-1.7 -5.2,-8c-0.6,-4.7 0.3,-9.2 0.3,-9.2c0,0 1.1,9.3 4.9,17.2z" fill="#52b6cc"/><path d="M260.9,142.4c1.3,-3.2 -3,-17.9 -3,-17.9c9.8,16.6 3,17.9 3,17.9z" fill="#52b6cc"/></g></g></g><g fill-rule="nonzero" stroke="none" stroke-width="1"><g><path d="M242,103.2c0,0 0.1,5.7 2,7c1.8,1.4 9.2,3 9.2,3c0,0 4.7,15.5 3.7,21.3c-1,5.8 -38.3,15.4 -41.9,7.4c-8.4,-18.4 -0.2,-23.6 -0.2,-23.6c0,0 12.7,-5.4 15.1,-8.1c2.4,-2.7 -0.5,-11.1 -0.5,-11.1c6.1,-3.4 12.6,4.1 12.6,4.1z" fill="#875137"/><path d="M230.5,103.8c0,0 0.1,0.3 0.1,0.7c0.1,0.5 0.2,1.2 0.2,2c0,0.8 0.1,1.8 -0.3,2.9c-0.1,0.3 -0.2,0.5 -0.4,0.8c-0.2,0.3 -0.4,0.4 -0.6,0.6c-0.5,0.4 -0.9,0.7 -1.4,1c-0.9,0.6 -1.9,1.1 -2.8,1.6c-0.9,0.5 -1.8,0.9 -2.5,1.3c-1.5,0.7 -2.5,1.1 -2.5,1.1c0,0 0.9,-0.6 2.3,-1.4c0.7,-0.4 1.5,-0.9 2.4,-1.4c0.9,-0.5 1.8,-1.1 2.7,-1.7c0.5,-0.3 0.9,-0.6 1.3,-0.9c0.2,-0.1 0.5,-0.4 0.6,-0.5c0.1,-0.2 0.2,-0.4 0.3,-0.6c0.3,-0.9 0.4,-1.9 0.4,-2.7c0,-0.8 0,-1.5 0,-2c0.2,-0.5 0.2,-0.8 0.2,-0.8z" fill="#613a27"/><path d="M236.3,116.1c0,0 -0.5,0 -1.3,0c-0.8,0 -1.8,0 -2.7,-0.1c-1,-0.1 -2,-0.1 -2.7,-0.2c-0.4,0 -0.7,-0.1 -0.9,-0.1c-0.2,0 -0.3,0 -0.3,0c0,0 0.5,-0.1 1.3,-0.2c0.8,-0.1 1.8,-0.1 2.8,0c1,0.1 2,0.2 2.7,0.4c0.6,0.1 1.1,0.2 1.1,0.2z" fill="#613a27"/><path d="M248.8,113.7c0,0 -0.4,0.2 -1.1,0.4c-0.7,0.2 -1.5,0.5 -2.4,0.8c-0.9,0.2 -1.8,0.5 -2.5,0.6c-0.7,0.1 -1.1,0.2 -1.1,0.2c0,0 0.4,-0.3 1,-0.6c0.6,-0.3 1.5,-0.6 2.4,-0.9c0.9,-0.2 1.8,-0.4 2.5,-0.5c0.7,0 1.2,0 1.2,0z" fill="#613a27"/></g><g><g><path d="M249.7,112.2l3.5,0.8c0,0 1.9,0.1 3.7,10.7c1.1,6.8 3.7,14.9 2.5,19.7c-1.7,6.8 -4.9,13.6 -4.9,13.6c-13.9,9.6 -32.6,0.9 -32.6,0.9c-1.4,-5.7 -8.6,-18.5 -7.5,-16.6c1.1,1.9 -3.5,-5 -3.6,-13c-0.1,-7.1 2.7,-9.2 3.4,-9.8c0.7,-0.6 2.7,-1.8 4.2,-2.2c7.5,-0.7 7.5,13.2 7.5,13.2c10.8,-2.3 16.9,1.8 16.9,1.8c4,-5 11.9,-4.4 11.9,-4.4c-1.9,-14.1 -5,-14.6 -5,-14.7z" fill="#6fced9"/><path d="M254.5,156.8c0,0 0.7,-1.8 1.6,-4.5c0.5,-1.3 1.1,-2.9 1.6,-4.6c0.3,-0.8 0.6,-1.7 0.9,-2.6c0.1,-0.4 0.3,-0.9 0.4,-1.3c0.1,-0.4 0.1,-0.9 0.2,-1.4c0.1,-0.9 0.2,-1.9 0.2,-2.8c0,-0.9 -0.1,-1.8 -0.2,-2.7c-0.2,-1.8 -0.4,-3.4 -0.7,-4.8c-0.5,-2.8 -0.8,-4.7 -0.8,-4.7c0,0 0.1,0.5 0.3,1.3c0.2,0.8 0.5,1.9 0.8,3.3c0.3,1.4 0.7,3 0.9,4.8c0.1,0.9 0.2,1.8 0.2,2.8c0,0.9 0,1.9 -0.2,2.9l-0.1,0.7c0,0.2 -0.1,0.5 -0.1,0.7c-0.1,0.5 -0.3,0.9 -0.4,1.4c-0.3,0.9 -0.6,1.8 -0.9,2.6c-0.6,1.7 -1.3,3.2 -1.8,4.5c-1,2.7 -1.9,4.4 -1.9,4.4z" fill="#3fadc4"/><path d="M221.6,156.7c0,0 -0.4,-0.7 -0.9,-1.7c-0.5,-1 -1.2,-2.4 -1.8,-3.9c-0.6,-1.4 -1.2,-2.8 -1.7,-3.9c-0.4,-1.1 -0.8,-1.8 -0.8,-1.8c0,0 0.6,0.6 1.2,1.6c0.6,1 1.3,2.4 1.9,3.8c0.6,1.4 1.2,2.9 1.6,4c0.3,1.1 0.5,1.9 0.5,1.9z" fill="#3fadc4"/><path d="M254.7,126.9c-0.6,0 -1.1,0 -1.6,0.1c-0.5,0 -1.1,0.1 -1.6,0.2c-0.5,0.1 -1.1,0.2 -1.6,0.3c-0.3,0.1 -0.5,0.1 -0.8,0.2l-0.8,0.2c-0.5,0.2 -1,0.3 -1.5,0.6c-0.3,0.1 -0.5,0.2 -0.7,0.3c-0.2,0.1 -0.5,0.2 -0.7,0.4l-0.7,0.4c-0.2,0.2 -0.4,0.4 -0.6,0.5c-0.2,0.2 -0.4,0.4 -0.6,0.6l-0.5,0.6l-0.1,0.1l-0.1,-0.1c-0.6,-0.4 -1.3,-0.7 -1.9,-0.9c-0.7,-0.2 -1.4,-0.4 -2.1,-0.6c-0.3,-0.1 -0.7,-0.1 -1,-0.2c-0.3,-0.1 -0.7,-0.1 -1.1,-0.2c-0.4,-0.1 -0.7,-0.1 -1.1,-0.1c-0.4,0 -0.7,-0.1 -1.1,-0.1c-0.7,-0.1 -1.4,-0.1 -2.1,-0.1c-0.7,0 -1.4,0 -2.1,0c-0.7,0 -1.4,0.1 -2.2,0.1l-2.2,0.2v-0.1c0.7,-0.2 1.4,-0.4 2.1,-0.5c0.7,-0.1 1.4,-0.2 2.2,-0.3c0.7,-0.1 1.5,-0.1 2.2,-0.1c0.7,0 1.5,0 2.2,0.1c0.4,0 0.7,0.1 1.1,0.1c0.4,0 0.7,0.1 1.1,0.2c0.7,0.1 1.4,0.3 2.1,0.5c0.3,0.1 0.7,0.2 1,0.3c0.3,0.1 0.7,0.3 1,0.4c0.7,0.3 1.3,0.6 1.9,1h-0.2c0.4,-0.4 0.7,-0.9 1.1,-1.2c0.2,-0.2 0.4,-0.4 0.6,-0.6l0.7,-0.5c0.2,-0.2 0.5,-0.3 0.7,-0.5c0.2,-0.2 0.5,-0.3 0.7,-0.4c0.3,-0.1 0.5,-0.3 0.8,-0.4l0.8,-0.3c0.5,-0.2 1.1,-0.3 1.6,-0.4c0.3,-0.1 0.6,-0.1 0.8,-0.1c0.3,0 0.6,-0.1 0.8,-0.1c1.3,0.1 2.4,0.1 3.5,0.4z" fill="#3fadc4"/><path d="M225.8,127.3c0,0 -0.1,-0.9 -0.4,-2.3c-0.3,-1.4 -0.7,-3.2 -1.5,-4.8c-0.2,-0.4 -0.4,-0.8 -0.6,-1.2c-0.2,-0.4 -0.5,-0.7 -0.8,-1c-0.3,-0.3 -0.6,-0.6 -0.9,-0.8c-0.3,-0.2 -0.6,-0.4 -0.9,-0.5c-0.3,-0.1 -0.6,-0.2 -0.9,-0.3c-0.3,-0.1 -0.5,-0.1 -0.7,-0.1c-0.4,0 -0.6,0 -0.6,0c0,0 0.2,0 0.6,-0.1c0.2,0 0.5,0 0.7,0c0.3,0 0.6,0.1 1,0.2c0.3,0.1 0.7,0.3 1.1,0.5c0.4,0.2 0.7,0.5 1,0.8c0.7,0.6 1.2,1.5 1.6,2.3c0.8,1.7 1.1,3.6 1.3,5c0,1.4 0,2.3 0,2.3z" fill="#3fadc4"/></g><path d="M230.4,158.8c0,0 -0.3,-1.3 -0.8,-3.3c-0.3,-1 -0.6,-2.1 -0.9,-3.4c-0.3,-1.2 -0.7,-2.5 -1.1,-3.8c-0.2,-0.7 -0.4,-1.3 -0.6,-1.9c-0.2,-0.6 -0.4,-1.2 -0.6,-1.8c-0.4,-1.2 -0.8,-2.3 -1.3,-3.2c-0.2,-0.5 -0.4,-0.9 -0.6,-1.3c-0.2,-0.4 -0.3,-0.7 -0.5,-0.9c-0.3,-0.5 -0.5,-0.8 -0.5,-0.8c0,0 0.2,0.3 0.6,0.8c0.2,0.2 0.4,0.5 0.6,0.9c0.2,0.4 0.5,0.7 0.7,1.2c0.5,0.9 1,2 1.4,3.2c0.2,0.6 0.5,1.2 0.7,1.8c0.2,0.6 0.4,1.3 0.6,1.9c0.4,1.3 0.7,2.6 1,3.9c0.3,1.2 0.5,2.4 0.7,3.4c0.5,1.9 0.6,3.3 0.6,3.3z" fill="#3fadc4"/><path d="M259.1,137.1c0,0 -0.2,0.3 -0.4,0.9c-0.3,0.5 -0.6,1.3 -1.1,2.3c-0.4,0.9 -0.9,2.1 -1.4,3.3c-0.5,1.2 -1,2.5 -1.5,3.8c-0.5,1.3 -1,2.6 -1.4,3.8c-0.4,1.2 -0.8,2.4 -1.2,3.4c-0.7,2 -1.1,3.3 -1.1,3.3c0,0 0.1,-0.3 0.2,-0.9c0.1,-0.6 0.3,-1.5 0.6,-2.5c0.3,-1 0.6,-2.2 1,-3.4c0.4,-1.2 0.9,-2.6 1.4,-3.9c0.5,-1.3 1.1,-2.6 1.6,-3.8c0.5,-1.2 1.1,-2.3 1.6,-3.2c0.9,-1.9 1.7,-3.1 1.7,-3.1z" fill="#3fadc4"/></g></g><g fill-rule="nonzero" stroke="none" stroke-width="1"><g><path d="M174,288.6c0,0 12.5,-103.4 47,-130.3c0.8,0.5 9.7,5.3 23,3.7c10.1,-1.2 11.2,-4.4 11.2,-4.4c0,0 0,-0.1 0,-0.2c3.9,4.7 12.6,17.6 23.6,49c15,43.1 18,79.4 18,79.4c0,0 -8.4,8.5 -18.7,9c0,0 0.8,4.6 1,8.8c0.2,4.2 -43,13.6 -56.7,5.5c-2.9,-1.7 -1.2,-6.1 -9.2,-6c-18.7,0.2 -24.4,-3.9 -24.4,-3.9l0.6,-5c-0.1,0.1 -9.9,0.1 -15.4,-5.6z" fill="#6fced9"/><g fill="#3fadc4"><g><path d="M279.1,301.1c0,0 -1.1,-6.4 -2.8,-16.1c-0.9,-4.8 -1.9,-10.4 -2.9,-16.5c-1.1,-6 -2.2,-12.4 -3.5,-18.8c-0.6,-3.2 -1.2,-6.4 -1.8,-9.6c-0.6,-3.1 -1.2,-6.2 -1.8,-9.2c-1.2,-6 -2.3,-11.6 -3.4,-16.4c-0.5,-2.4 -1,-4.6 -1.5,-6.5c-0.5,-1.9 -0.8,-3.6 -1.2,-5c-0.7,-2.8 -1.2,-4.3 -1.2,-4.3c0,0 0.5,1.6 1.3,4.3c0.4,1.4 0.8,3.1 1.3,5c0.5,1.9 1.1,4.1 1.6,6.5c0.6,2.4 1.2,5 1.8,7.7c0.6,2.7 1.2,5.6 1.8,8.6c0.6,3 1.2,6.1 1.9,9.2c0.6,3.2 1.2,6.4 1.8,9.6c1.2,6.4 2.3,12.8 3.4,18.9c1,6 2,11.7 2.8,16.5c0.8,4.8 1.4,8.9 1.8,11.7c0.4,2.8 0.6,4.4 0.6,4.4z"/><path d="M189,296.7c0,0 0.1,-1.1 0.3,-3c0.2,-1.9 0.5,-4.6 0.9,-7.8c0.4,-3.2 0.8,-7 1.4,-11c0.6,-4 1.1,-8.3 1.7,-12.6c0.6,-4.3 1.3,-8.6 1.9,-12.6c0.6,-4 1.3,-7.7 1.8,-10.9c0.6,-3.2 1.1,-5.8 1.5,-7.7c0.4,-1.9 0.6,-2.9 0.6,-2.9c0,0 -0.2,1.1 -0.5,2.9c-0.3,1.9 -0.7,4.5 -1.2,7.7c-0.5,3.2 -1.1,6.9 -1.7,11c-0.6,4 -1.2,8.3 -1.8,12.6c-2.5,17.1 -4.9,34.3 -4.9,34.3z"/><path d="M232.1,161.8c0,0 -0.4,0.9 -1,2.4c-0.6,1.5 -1.3,3.8 -2.1,6.5c-0.4,1.4 -0.8,2.9 -1.2,4.4c-0.4,1.6 -0.8,3.3 -1.2,5c-0.4,1.7 -0.8,3.5 -1.1,5.4c-0.4,1.8 -0.7,3.7 -1,5.6c-0.2,0.9 -0.3,1.9 -0.5,2.8c-0.1,0.9 -0.3,1.9 -0.4,2.8c-0.3,1.8 -0.5,3.7 -0.7,5.4c-0.2,1.8 -0.4,3.5 -0.6,5.1c-0.2,1.6 -0.3,3.2 -0.5,4.6c-0.3,2.8 -0.5,5.2 -0.6,6.8c-0.1,1.7 -0.2,2.6 -0.2,2.6c0,0 0,-0.9 0.1,-2.6c0,-0.8 0.1,-1.8 0.1,-3c0,-1.2 0.1,-2.5 0.2,-3.9c0.1,-1.4 0.2,-3 0.4,-4.6c0.1,-1.6 0.3,-3.3 0.5,-5.1c0.2,-1.8 0.4,-3.6 0.7,-5.4c0.1,-0.9 0.3,-1.9 0.4,-2.8c0.2,-0.9 0.3,-1.9 0.5,-2.8c0.3,-1.9 0.7,-3.7 1,-5.6c0.3,-1.8 0.8,-3.6 1.1,-5.4c0.4,-1.7 0.8,-3.4 1.3,-5c0.5,-1.6 0.9,-3.1 1.3,-4.4c0.4,-1.4 0.9,-2.6 1.3,-3.7c0.4,-1.1 0.8,-2 1.1,-2.8c0.7,-1.4 1.1,-2.3 1.1,-2.3z"/><path d="M247.4,161.5c0,0 0.3,0.2 0.8,0.7c0.5,0.5 1,1.2 1.6,2.2c0.6,1 1.2,2.2 1.7,3.5c0.3,0.7 0.5,1.3 0.8,2c0.2,0.7 0.5,1.4 0.7,2.1c0.4,1.4 0.8,2.9 1.2,4.3c0.2,0.7 0.3,1.3 0.5,2c0.1,0.6 0.3,1.2 0.4,1.8c0.4,2.2 0.7,3.7 0.7,3.7c0,0 -0.4,-1.4 -1,-3.6c-0.3,-1.1 -0.7,-2.3 -1,-3.7c-0.4,-1.4 -0.8,-2.8 -1.3,-4.2c-0.2,-0.7 -0.5,-1.4 -0.7,-2.1c-0.2,-0.7 -0.5,-1.4 -0.7,-2c-0.5,-1.3 -1,-2.5 -1.5,-3.5c-0.5,-1 -1,-1.8 -1.4,-2.3c-0.5,-0.7 -0.8,-0.9 -0.8,-0.9z"/><path d="M225.5,160.3c0,0 -0.5,0.4 -1.2,1.2c-0.3,0.4 -0.7,0.9 -1.1,1.4c-0.4,0.5 -0.8,1.1 -1.2,1.7c-0.4,0.6 -0.8,1.1 -1.2,1.7c-0.4,0.5 -0.7,1.1 -1,1.5c-0.3,0.4 -0.5,0.8 -0.7,1.1c-0.2,0.3 -0.3,0.4 -0.3,0.4c0,0 0.1,-0.2 0.2,-0.5c0.1,-0.3 0.3,-0.7 0.5,-1.2c0.5,-1 1.2,-2.2 2,-3.4c0.4,-0.6 0.8,-1.1 1.3,-1.6c0.4,-0.5 0.9,-0.9 1.3,-1.3c0.4,-0.4 0.8,-0.6 1,-0.8c0.2,-0.1 0.4,-0.2 0.4,-0.2z"/><path d="M242.8,162.3c0,0 0.2,0.7 0.7,1.9c0.4,1.2 1,2.9 1.6,5c0.6,2.1 1.3,4.5 1.9,7.1c0.6,2.6 1.2,5.4 1.8,8.3c0.3,1.4 0.5,2.8 0.7,4.2c0.2,1.4 0.4,2.8 0.6,4.1c0.2,1.3 0.3,2.6 0.4,3.9c0.1,1.2 0.2,2.4 0.3,3.5c0.2,2.2 0.2,4 0.3,5.2c0,1.3 0.1,2 0.1,2c0,0 -0.1,-0.7 -0.2,-2c-0.1,-0.6 -0.1,-1.4 -0.2,-2.3c-0.1,-0.9 -0.2,-1.9 -0.3,-2.9c-0.1,-1.1 -0.2,-2.2 -0.4,-3.5c-0.2,-1.2 -0.3,-2.5 -0.5,-3.8c-0.2,-1.3 -0.4,-2.7 -0.6,-4.1c-0.2,-1.4 -0.5,-2.8 -0.8,-4.2c-0.5,-2.8 -1.1,-5.6 -1.7,-8.3c-0.6,-2.6 -1.2,-5.1 -1.7,-7.2c-0.5,-2.1 -1,-3.8 -1.4,-5c-0.4,-1.2 -0.6,-1.9 -0.6,-1.9z"/></g><path d="M259.7,163.6c0,0 0.2,0.4 0.6,1.1c0.4,0.7 1.1,1.8 1.9,3.1c1.6,2.7 3.8,6.6 6,11.5c2.3,4.9 4.7,10.7 7.1,17c2.4,6.3 4.8,13.1 7,19.9c2.2,6.8 4.2,13.8 5.9,20.3c1.7,6.5 3,12.7 4,18c1,5.3 1.7,9.7 2.1,12.8c0.2,1.6 0.4,2.8 0.5,3.6c0.1,0.4 0.1,0.7 0.1,0.9c0,0.2 0.1,0.3 0.1,0.3c0,0 0,-0.1 -0.1,-0.3c0,-0.2 -0.1,-0.5 -0.2,-0.9c-0.1,-0.8 -0.3,-2 -0.6,-3.6c-0.5,-3.1 -1.3,-7.5 -2.4,-12.8c-1.1,-5.3 -2.5,-11.4 -4.2,-17.9c-1.7,-6.5 -3.7,-13.4 -5.9,-20.2c-1.1,-3.4 -2.2,-6.8 -3.4,-10.2c-1.2,-3.3 -2.4,-6.6 -3.5,-9.7c-2.4,-6.3 -4.7,-12.1 -6.9,-17c-2.2,-4.9 -4.2,-8.9 -5.8,-11.6c-0.8,-1.4 -1.4,-2.4 -1.8,-3.2c-0.3,-0.7 -0.5,-1.1 -0.5,-1.1z"/><path d="M236.4,312.3c0,0 -0.7,0 -2,0c-1.3,-0.1 -3.2,-0.2 -5.4,-0.6c-1.1,-0.2 -2.3,-0.5 -3.5,-0.9c-0.6,-0.2 -1.3,-0.4 -1.9,-0.7c-0.6,-0.3 -1.2,-0.7 -1.8,-1.1c-1.1,-0.9 -1.9,-2.3 -2.5,-3.6c-0.2,-0.3 -0.3,-0.6 -0.6,-0.7c-0.3,-0.2 -0.6,-0.3 -0.9,-0.4c-0.7,-0.2 -1.4,-0.3 -2.1,-0.4c-1.5,-0.2 -2.9,-0.2 -4.4,-0.2c-1.5,0 -2.9,0 -4.3,-0.1c-2.8,-0.1 -5.4,-0.6 -7.6,-1c-2.2,-0.4 -4,-0.9 -5.2,-1.2c-1.3,-0.3 -2,-0.6 -2,-0.6c0,0 0.7,0.2 2,0.5c1.3,0.3 3.1,0.6 5.3,1c2.2,0.4 4.8,0.6 7.5,0.8c1.4,0.1 2.8,0 4.3,0c1.5,0 3,0.1 4.4,0.2c0.7,0.1 1.5,0.2 2.2,0.4c0.4,0.1 0.8,0.3 1.1,0.5c0.4,0.2 0.6,0.6 0.8,0.9c0.7,1.3 1.3,2.6 2.3,3.4c0.5,0.4 1.1,0.8 1.6,1.1c0.3,0.1 0.6,0.3 0.9,0.4c0.3,0.1 0.6,0.2 0.9,0.3c1.2,0.4 2.4,0.7 3.4,0.9c4.5,1.1 7.5,1.1 7.5,1.1z"/><path d="M221,158.2c0,0 -0.2,0.2 -0.5,0.5c-0.4,0.3 -0.9,0.8 -1.5,1.4c-1.3,1.2 -3.1,3 -5,5.3c-1.9,2.3 -4,5.2 -6,8.4c-1,1.6 -2,3.3 -2.9,5.1c-1,1.7 -1.9,3.5 -2.8,5.3c-1.8,3.6 -3.5,7.3 -5,10.8c-0.7,1.7 -1.5,3.4 -2.1,5c-0.7,1.6 -1.3,3.1 -1.8,4.6c-1.1,2.8 -1.9,5.2 -2.4,6.9c-0.3,0.8 -0.5,1.5 -0.6,2c-0.1,0.5 -0.2,0.7 -0.2,0.7c0,0 0.1,-0.2 0.2,-0.7c0.1,-0.5 0.3,-1.1 0.5,-2c0.5,-1.7 1.2,-4.1 2.2,-7c1,-2.9 2.3,-6.2 3.7,-9.7c1.5,-3.5 3.1,-7.2 4.9,-10.8c0.9,-1.8 1.8,-3.6 2.8,-5.3c1,-1.8 2,-3.4 3,-5.1c2,-3.2 4.2,-6 6.2,-8.3c2,-2.3 3.9,-4 5.2,-5.2c0.7,-0.6 1.2,-1 1.6,-1.3c0.3,-0.4 0.5,-0.6 0.5,-0.6z"/></g></g><g><path d="M255.3,157.6c0,0 -1.1,3.2 -11.2,4.4c-14,1.6 -23.1,-3.8 -23.1,-3.8c-0.1,-1.2 0.8,-1.7 0.8,-1.7c0,0 6.7,2.6 15.3,3.6c8.7,1 17.5,-3.6 17.5,-3.6c0.6,-0.2 0.7,1.1 0.7,1.1z" fill="#d9a64a"/><path d="M251.6,160.3c0,0 -0.5,0.2 -1.3,0.4c-0.8,0.2 -2,0.6 -3.5,0.9c-0.7,0.2 -1.5,0.3 -2.4,0.4c-0.8,0.1 -1.7,0.2 -2.7,0.3c-0.9,0 -1.9,0.1 -2.9,0.1c-1,0 -2,0 -3,0l-1.5,-0.1c-0.5,-0.1 -1,-0.1 -1.5,-0.2c-1,-0.1 -1.9,-0.3 -2.8,-0.5c-0.9,-0.2 -1.8,-0.4 -2.6,-0.7c-0.4,-0.1 -0.8,-0.2 -1.2,-0.4c-0.4,-0.1 -0.7,-0.3 -1.1,-0.4c-0.7,-0.3 -1.3,-0.5 -1.9,-0.8c-0.5,-0.3 -1,-0.5 -1.4,-0.7c-0.8,-0.4 -1.2,-0.6 -1.2,-0.6c0,0 0.5,0.2 1.3,0.5c0.4,0.2 0.9,0.4 1.4,0.6c0.6,0.2 1.2,0.4 1.9,0.6c0.3,0.1 0.7,0.2 1.1,0.4c0.4,0.1 0.8,0.2 1.2,0.3c0.8,0.2 1.7,0.4 2.6,0.6c0.9,0.2 1.8,0.3 2.8,0.4c0.5,0.1 1,0.1 1.4,0.2l1.5,0.1c1,0.1 1.9,0.1 2.9,0.1c1,0 1.9,-0.1 2.8,-0.1c0.9,-0.1 1.8,-0.1 2.6,-0.2c0.8,-0.1 1.6,-0.2 2.3,-0.3c1.5,-0.2 2.7,-0.5 3.5,-0.7c1.2,0 1.7,-0.2 1.7,-0.2z" fill="#a67939"/><path d="M252.9,157.3c0,0 -1.2,0.7 -3.1,1.4c-0.5,0.2 -1,0.3 -1.6,0.5c-0.6,0.1 -1.2,0.3 -1.8,0.5c-1.3,0.3 -2.6,0.5 -4,0.6c-0.7,0.1 -1.4,0.1 -2,0.1c-0.7,0 -1.3,0 -2,0c-0.6,0 -1.3,-0.1 -1.8,-0.2c-0.6,0 -1.1,-0.2 -1.6,-0.2c-0.5,-0.1 -1,-0.2 -1.4,-0.3c-0.4,-0.1 -0.8,-0.2 -1,-0.3c-0.6,-0.2 -0.9,-0.3 -0.9,-0.3c0,0 0.3,0 0.9,0.1c0.3,0 0.6,0.1 1.1,0.2c0.4,0.1 0.9,0.1 1.4,0.1c0.5,0.1 1,0.1 1.6,0.1c0.6,0 1.2,0.1 1.8,0.1c0.6,0 1.3,0 1.9,0c0.7,0 1.3,0 2,-0.1c1.3,-0.1 2.7,-0.3 3.9,-0.5c1.2,-0.2 2.4,-0.5 3.4,-0.8c1.9,-0.4 3.2,-1 3.2,-1z" fill="#a67939"/></g></g><g fill-rule="nonzero" stroke="none" stroke-width="1"><g><g><path d="M209.9,196.2c0,0 2.4,2.1 2.5,6.9c0.1,3.3 1.1,5.9 0.2,6.1c-1.9,0.3 -1.8,-4.8 -1.8,-4.8c0,0 -1.2,4.7 -0.5,6.5c0.5,1.3 0.3,3.7 -0.4,3.9c-0.7,0.2 -1.5,-3 -2,-5.1c0,0 0.3,2.5 0.2,4c-0.1,1.6 -0.6,2.1 -1.5,0.4c0,0 -1.2,2.5 -2.3,-2.6c0,0 -1.1,0.4 -1.4,-2.3c-0.2,-2.7 -0.6,-16.5 7,-13z" fill="#875137"/><path d="M209.4,214.3c0,0 -0.1,-0.1 -0.2,-0.3c-0.1,-0.2 -0.3,-0.5 -0.5,-0.9c-0.2,-0.4 -0.3,-0.8 -0.5,-1.4c-0.1,-0.5 -0.2,-1.1 -0.3,-1.6c-0.1,-1.1 -0.1,-2.2 0,-3.1c0,-0.4 0.1,-0.8 0.2,-1c0.1,-0.2 0.1,-0.4 0.1,-0.4c0,0 0,0.1 0,0.4c0,0.2 0,0.6 0.1,1c0,0.4 0,0.9 0.1,1.4c0,0.5 0.1,1 0.1,1.6c0.1,1.1 0.3,2.1 0.5,2.9c0.2,0.8 0.4,1.4 0.4,1.4z" fill="#613a27"/><path d="M206.6,214.1c0,0 -0.3,-0.4 -0.6,-1.2c-0.1,-0.4 -0.3,-0.8 -0.4,-1.3c-0.1,-0.5 -0.2,-1 -0.2,-1.5c-0.1,-1 0,-2.1 0.1,-2.9c0.1,-0.8 0.3,-1.3 0.3,-1.3c0,0 0,0.1 0,0.4c0,0.2 0,0.5 0,0.9c0,0.4 0,0.8 0,1.3c0,0.5 0,1 0.1,1.5c0.1,1 0.2,2 0.3,2.8c0.3,0.8 0.4,1.3 0.4,1.3z" fill="#613a27"/><path d="M204.4,211.5c0,0 -0.2,-0.4 -0.3,-0.9c-0.1,-0.6 -0.3,-1.3 -0.3,-2.1c0,-0.8 0,-1.6 0.1,-2.2c0.1,-0.6 0.3,-1 0.3,-1c0,0 0,0.1 0,0.3c0,0.2 0,0.4 0.1,0.7c0,0.6 0.1,1.3 0.1,2.1c0,0.8 0.1,1.5 0,2.1c0,0.6 0,1 0,1z" fill="#613a27"/></g><path d="M210.6,197.2c0,0 0.1,0 0.3,0.1c0.2,0.1 0.4,0.3 0.5,0.5c0.4,0.5 0.7,1.3 0.9,2.1c0.2,0.8 0.2,1.6 0.3,2.2c0,0.6 -0.1,1 -0.1,1c0,0 -0.1,-0.4 -0.3,-1c-0.2,-0.6 -0.3,-1.4 -0.5,-2.1c-0.2,-0.8 -0.4,-1.5 -0.6,-2.1c-0.1,-0.3 -0.2,-0.5 -0.3,-0.6c-0.1,-0.1 -0.2,-0.1 -0.2,-0.1z" fill="#613a27"/></g><g><g><path d="M214.3,159.4c1.6,4.9 -0.3,16.1 -1.7,23.7c-0.9,4.9 -2,13.9 -2,13.9c-1.6,1.6 -3.5,0.8 -5.3,-0.1c0,0 -0.3,-4.1 -1,-12.1c-0.7,-8.6 0.4,-23.4 2.6,-25.8c2.6,-2.7 6.6,-2 7.4,0.4z" fill="#52b6cc"/><path d="M214.9,162.7c0,0 0.1,1.5 0.1,3.8c0,1.1 -0.1,2.5 -0.2,3.9c-0.1,1.4 -0.3,2.9 -0.4,4.4c-0.2,1.5 -0.4,3 -0.7,4.4c-0.1,0.7 -0.3,1.4 -0.4,2c-0.1,0.6 -0.3,1.2 -0.4,1.8c-0.3,1.1 -0.5,2 -0.7,2.7c-0.2,0.6 -0.3,1 -0.3,1c0,0 0.3,-1.5 0.7,-3.7c0.2,-1.1 0.4,-2.4 0.6,-3.8c0.2,-1.4 0.4,-2.9 0.6,-4.4c0.2,-1.5 0.4,-3 0.5,-4.4c0.1,-1.4 0.3,-2.7 0.4,-3.9c0.1,-2.3 0.2,-3.8 0.2,-3.8z" fill="#2e83bf"/></g><path d="M205.3,196.5c0,0 -0.1,-0.5 -0.3,-1.4c-0.1,-0.9 -0.4,-2.1 -0.5,-3.7c-0.2,-1.5 -0.4,-3.3 -0.5,-5.2c-0.1,-1.9 -0.2,-4 -0.2,-6c0,-2 0,-4.1 0.2,-6c0,-1 0.1,-1.9 0.2,-2.8c0.1,-0.9 0.2,-1.7 0.3,-2.5c0.2,-1.5 0.4,-2.8 0.5,-3.7c0.2,-0.9 0.3,-1.4 0.3,-1.4c0,0 0,0.5 -0.1,1.4c0,0.4 -0.1,1 -0.2,1.6c0,0.6 -0.1,1.3 -0.2,2.1c-0.1,1.5 -0.2,3.3 -0.3,5.2c-0.1,1.9 -0.1,3.9 -0.1,6c0,2 0.1,4.1 0.1,6c0.1,1.9 0.2,3.7 0.3,5.2c0.3,3.2 0.5,5.2 0.5,5.2z" fill="#2e83bf"/></g><g><g><path d="M209.9,166.2c-6.9,2.4 -5.5,-37.9 3.6,-46.3c9.4,-8.7 8.8,10.8 8.2,15.4c-1.3,10.5 -4.9,28.5 -11.8,30.9z" fill="#52b6cc"/><path d="M222,128.1c0,0 0.1,1.5 0,3.7c0,1.1 -0.1,2.4 -0.2,3.8c-0.1,1.4 -0.3,2.9 -0.5,4.4c-0.2,1.5 -0.5,2.9 -0.8,4.3c-0.3,1.4 -0.6,2.6 -0.9,3.7c-0.3,1.1 -0.6,2 -0.8,2.6c-0.2,0.6 -0.3,1 -0.3,1c0,0 0.1,-0.4 0.2,-1c0.1,-0.6 0.3,-1.5 0.5,-2.6c0.2,-1.1 0.4,-2.4 0.7,-3.7c0.2,-1.4 0.5,-2.8 0.7,-4.3c0.2,-1.5 0.4,-2.9 0.6,-4.3c0.2,-1.4 0.3,-2.7 0.4,-3.8c0.2,-2.4 0.4,-3.8 0.4,-3.8z" fill="#2e83bf"/><path d="M218,117.7c0,0 -0.2,0 -0.4,0c-0.3,0 -0.7,0.1 -1.2,0.2c-0.5,0.2 -1.1,0.4 -1.6,0.9c-0.3,0.2 -0.6,0.5 -0.9,0.7c-0.3,0.3 -0.6,0.6 -0.9,0.9c-0.6,0.6 -1.1,1.5 -1.6,2.4c-0.2,0.5 -0.4,0.9 -0.7,1.4c-0.1,0.2 -0.2,0.5 -0.4,0.7c-0.1,0.3 -0.2,0.5 -0.3,0.8c-0.4,1 -0.8,2.1 -1.1,3.3c-0.2,0.6 -0.3,1.1 -0.5,1.7c-0.2,0.6 -0.3,1.2 -0.4,1.7c-0.2,1.2 -0.6,2.3 -0.7,3.5c-0.2,1.2 -0.4,2.3 -0.6,3.4c-0.1,1.1 -0.3,2.2 -0.4,3.2c-0.1,1 -0.3,2 -0.3,2.9c-0.3,3.6 -0.5,6 -0.5,6c0,0 0,-2.4 0.2,-6c0,-0.9 0.2,-1.9 0.2,-2.9c0.1,-1 0.2,-2.1 0.3,-3.2c0.2,-1.1 0.3,-2.3 0.5,-3.4c0.1,-1.2 0.5,-2.4 0.7,-3.5c0.1,-0.6 0.2,-1.2 0.4,-1.8c0.2,-0.6 0.3,-1.2 0.5,-1.7c0.3,-1.2 0.7,-2.2 1.2,-3.3c0.1,-0.3 0.2,-0.5 0.3,-0.8c0.1,-0.2 0.3,-0.5 0.4,-0.7c0.3,-0.5 0.5,-1 0.7,-1.4c0.6,-0.9 1.1,-1.7 1.7,-2.4c0.3,-0.3 0.6,-0.7 0.9,-0.9c0.3,-0.2 0.6,-0.6 0.9,-0.7c0.6,-0.4 1.2,-0.6 1.7,-0.8c0.5,-0.1 0.9,-0.1 1.2,-0.1c0.6,-0.1 0.7,-0.1 0.7,-0.1z" fill="#2e83bf"/></g><g><g><path d="M225.6,137.8c0.8,7 -3.5,9.8 -11.7,9.8c-8.2,0 -13.2,-6.5 -11.6,-10.2c3.1,-6.9 2.6,-8.9 7.3,-14.8c4.7,-5.9 7.9,-5.9 10.7,-4.1c3.8,2.4 4.4,12.3 5.3,19.3z" fill="#6fced9"/><path d="M223.9,125.7c0,0 0.5,1.8 1,4.5c0.2,1.3 0.5,2.9 0.7,4.6c0.2,1.7 0.3,3.5 0.2,5.4c-0.1,0.9 -0.1,1.9 -0.5,2.8c0,0.1 -0.1,0.2 -0.1,0.4l-0.2,0.3c-0.1,0.2 -0.2,0.4 -0.4,0.6l-0.5,0.6l-0.5,0.4c-0.7,0.6 -1.5,1 -2.2,1.2c-0.7,0.3 -1.5,0.5 -2.1,0.7c-1.3,0.3 -2.5,0.4 -3.3,0.5c-0.8,0.1 -1.3,0 -1.3,0c0,0 0.5,0 1.2,-0.2c0.8,-0.1 1.9,-0.3 3.2,-0.7c1.3,-0.4 2.8,-0.9 4.1,-2l0.5,-0.4l0.4,-0.5c0.1,-0.1 0.2,-0.4 0.3,-0.6l0.2,-0.3c0,0 0.1,-0.2 0.1,-0.3c0.3,-0.8 0.3,-1.7 0.4,-2.6c0.1,-1.8 0,-3.6 -0.2,-5.3c-0.2,-1.7 -0.3,-3.3 -0.5,-4.6c-0.2,-2.7 -0.5,-4.5 -0.5,-4.5z" fill="#3fadc4"/><path d="M219,118c0,0 -0.5,-0.3 -1.5,-0.4c-0.5,0 -1.1,0 -1.7,0.2c-0.7,0.2 -1.4,0.5 -2.1,0.9c-0.7,0.4 -1.4,1 -2.1,1.7c-0.7,0.7 -1.3,1.5 -2,2.3c-1.3,1.7 -2.5,3.6 -3.4,5.6c-0.5,1 -0.9,2.1 -1.3,3.1c-0.2,0.5 -0.4,1 -0.6,1.6c-0.2,0.5 -0.4,1 -0.7,1.5c-0.5,0.9 -0.9,1.9 -1.1,2.8c-0.2,0.9 -0.3,1.8 -0.2,2.6c0.3,1.6 1.1,2.8 1.8,3.6c0.3,0.4 0.6,0.6 0.8,0.8c0.2,0.2 0.3,0.3 0.3,0.3c0,0 -0.1,-0.1 -0.3,-0.2c-0.2,-0.2 -0.5,-0.4 -0.9,-0.8c-0.4,-0.4 -0.8,-0.8 -1.1,-1.4c-0.4,-0.6 -0.7,-1.3 -0.9,-2.2c-0.2,-0.9 -0.1,-1.8 0.1,-2.8c0.2,-1 0.6,-2 1.1,-2.9c0.5,-0.9 0.8,-1.9 1.2,-3c0.4,-1.1 0.8,-2.1 1.3,-3.2c1,-2.1 2.2,-4 3.5,-5.7c0.7,-0.9 1.4,-1.6 2.1,-2.3c0.7,-0.7 1.5,-1.3 2.2,-1.7c0.7,-0.4 1.5,-0.7 2.2,-0.9c0.7,-0.1 1.3,-0.2 1.8,-0.1c0.5,0.1 0.9,0.2 1.1,0.3c0.3,0.2 0.4,0.3 0.4,0.3z" fill="#3fadc4"/></g><path d="M205,137.4c1.5,-3.2 4.3,-9 4.3,-9c0,0 -0.5,3.2 -1.9,7.2c-2.6,7.3 1.1,11.2 1.1,11.2c-3.5,-2.5 -5.2,-6.3 -3.5,-9.4z" fill="#52b6cc"/><path d="M221.8,129.6c0,0 1.5,5.7 1.3,11c-0.2,5.3 -5,6.5 -5,6.5c5.5,-3.8 3.7,-17.5 3.7,-17.5z" fill="#52b6cc"/><path d="M211.2,147.7c0,0 -3.4,-3.2 -1.8,-9.3c1.3,-4.6 3.8,-8.4 3.8,-8.4c0,0 -2.5,9 -2,17.7z" fill="#52b6cc"/><path d="M214.7,147.7c2.4,-2.5 4.1,-17.7 4.1,-17.7c2.7,19 -4.1,17.7 -4.1,17.7z" fill="#52b6cc"/></g></g></g><path d="M219.1,73.8c-2.8,1.5 -4.2,-1 -4.2,-1c-2.7,0.3 -1.8,-2.5 -1.8,-2.5c-2.4,-0.7 -0.6,-3.3 -0.6,-3.3c-1.5,-1.4 0.4,-3.5 0.4,-3.5c-0.9,-3.3 2.1,-3.6 2.1,-3.6c-1.4,-2.6 1.9,-3.5 1.9,-3.5c-0.2,-2.6 2.6,-3.3 2.6,-3.3c0.5,-3.5 4.7,-2.4 4.7,-2.4c1.1,-2.7 4.7,-1.5 4.7,-1.5c0.7,-1.7 3.5,-0.3 3.5,-0.3c1.4,-1.9 4,-0.2 4,-0.2c2.1,-1.6 4.2,0.2 4.2,0.2c7,-0.1 7.3,8.9 7.3,8.9" fill="#261c17" fill-rule="nonzero" stroke="none" stroke-width="1"/><path d="M236.5,48.7c0,0 0.5,0.1 1.2,0.4c0.3,0.2 0.7,0.4 1.1,0.8c0.4,0.3 0.7,0.7 1,1.2c0.2,0.4 0.4,0.9 0.6,1.4c0.2,0.5 0.3,0.9 0.3,1.3c0.1,0.4 0.1,0.7 0.1,0.9c0,0.2 0,0.3 0,0.3c0,0 -0.1,-0.1 -0.1,-0.3c-0.1,-0.2 -0.2,-0.5 -0.3,-0.8c-0.1,-0.3 -0.3,-0.7 -0.5,-1.1c-0.2,-0.4 -0.4,-0.8 -0.7,-1.2c-0.5,-0.8 -1.2,-1.5 -1.7,-2c-0.6,-0.6 -1,-0.9 -1,-0.9z" fill="#120d0b" fill-rule="nonzero" stroke="none" stroke-width="1"/><path d="M232.5,48.9c0,0 0.1,-0.1 0.2,0c0.2,0 0.4,0.1 0.6,0.3c0.4,0.3 0.9,0.8 1.3,1.4c0.4,0.6 0.6,1.2 0.8,1.7c0.1,0.5 0.2,0.8 0.2,0.8c0,0 -0.3,-0.3 -0.6,-0.7c-0.3,-0.4 -0.7,-1 -1,-1.5c-0.3,-0.6 -0.7,-1.1 -1,-1.5c-0.1,-0.2 -0.3,-0.3 -0.4,-0.4c0,-0.1 -0.1,-0.1 -0.1,-0.1z" fill="#120d0b" fill-rule="nonzero" stroke="none" stroke-width="1"/><path d="M229,49.2c0,0 0.1,0 0.3,0c0.2,0.1 0.5,0.1 0.8,0.3c0.6,0.3 1.3,1 1.8,1.9c0.2,0.4 0.5,0.8 0.6,1.2c0.2,0.4 0.3,0.8 0.4,1.1c0.1,0.4 0.1,0.7 0.1,0.9c0,0.2 0,0.3 0,0.3c0,0 0,0 -0.1,-0.2c-0.1,-0.2 -0.2,-0.4 -0.4,-0.7c-0.2,-0.3 -0.3,-0.7 -0.5,-1c-0.2,-0.4 -0.4,-0.8 -0.6,-1.1c-0.5,-0.8 -1,-1.4 -1.5,-1.9c-0.5,-0.6 -0.9,-0.8 -0.9,-0.8z" fill="#120d0b" fill-rule="nonzero" stroke="none" stroke-width="1"/><path d="M240.6,48.9c0,0 0.2,0 0.4,0.2c0.2,0.1 0.5,0.3 0.7,0.6c0.2,0.3 0.3,0.6 0.4,0.8c0.1,0.3 0,0.4 0,0.4c0,0 -0.1,-0.1 -0.3,-0.2c-0.2,-0.2 -0.4,-0.4 -0.6,-0.6c-0.2,-0.2 -0.3,-0.5 -0.4,-0.7c-0.1,-0.3 -0.2,-0.5 -0.2,-0.5z" fill="#120d0b" fill-rule="nonzero" stroke="none" stroke-width="1"/><path d="M224.3,50.7c0,0 0.5,0 1.3,0.3c0.4,0.2 0.8,0.4 1.2,0.7c0.4,0.3 0.8,0.7 1.1,1.1c0.7,0.8 1.2,1.7 1.4,2.5c0.1,0.4 0.2,0.7 0.3,0.9c0.1,0.2 0.1,0.3 0.1,0.3c0,0 -0.1,-0.1 -0.2,-0.3c-0.1,-0.2 -0.3,-0.5 -0.5,-0.8c-0.2,-0.3 -0.4,-0.7 -0.7,-1.1c-0.3,-0.4 -0.6,-0.8 -0.9,-1.1c-0.6,-0.8 -1.4,-1.4 -2,-1.9c-0.6,-0.3 -1.1,-0.6 -1.1,-0.6z" fill="#120d0b" fill-rule="nonzero" stroke="none" stroke-width="1"/><path d="M219.6,53.2c0,0 0.2,-0.2 0.5,-0.3c0.4,-0.1 0.9,0 1.3,0.1c0.4,0.2 0.8,0.5 1,0.8c0.2,0.3 0.3,0.5 0.3,0.5c0,0 -0.1,0 -0.2,0c-0.1,0 -0.2,-0.1 -0.4,-0.1c-0.3,-0.1 -0.7,-0.3 -1,-0.5c-0.4,-0.2 -0.7,-0.3 -1,-0.4c-0.3,-0.1 -0.5,-0.1 -0.5,-0.1z" fill="#120d0b" fill-rule="nonzero" stroke="none" stroke-width="1"/><path d="M223.2,53.4c0,0 0.2,0 0.5,0.1c0.3,0.1 0.6,0.3 0.9,0.6c0.3,0.3 0.5,0.6 0.5,0.9c0.1,0.3 0,0.5 0,0.5c0,0 0,0 -0.1,-0.1c-0.1,-0.1 -0.2,-0.1 -0.3,-0.2c-0.2,-0.2 -0.4,-0.4 -0.7,-0.7c-0.2,-0.3 -0.5,-0.5 -0.6,-0.7c-0.1,-0.2 -0.2,-0.4 -0.2,-0.4z" fill="#120d0b" fill-rule="nonzero" stroke="none" stroke-width="1"/><path d="M217,56.4c0,0 0.4,0.1 1,0.4c0.6,0.3 1.4,0.7 2,1.3c0.3,0.3 0.6,0.6 0.9,1c0.2,0.3 0.4,0.7 0.6,1c0.1,0.3 0.2,0.6 0.2,0.8c0,0.2 0,0.3 0,0.3c0,0 -0.1,-0.1 -0.2,-0.3c-0.1,-0.2 -0.2,-0.4 -0.4,-0.7c-0.2,-0.3 -0.4,-0.5 -0.7,-0.8c-0.3,-0.3 -0.6,-0.6 -0.9,-0.9c-0.6,-0.6 -1.3,-1.1 -1.8,-1.5c-0.4,-0.3 -0.7,-0.6 -0.7,-0.6z" fill="#120d0b" fill-rule="nonzero" stroke="none" stroke-width="1"/><path d="M215,59.9c0,0 0.4,0.1 1,0.4c0.5,0.3 1.2,0.9 1.7,1.5c0.3,0.3 0.5,0.7 0.7,1c0.2,0.3 0.4,0.7 0.5,1c0.2,0.6 0.3,1 0.3,1c0,0 -0.1,-0.1 -0.2,-0.2c-0.1,-0.1 -0.3,-0.4 -0.4,-0.6c-0.4,-0.5 -0.8,-1.1 -1.3,-1.7c-0.5,-0.6 -1,-1.2 -1.5,-1.6c-0.5,-0.5 -0.8,-0.8 -0.8,-0.8z" fill="#120d0b" fill-rule="nonzero" stroke="none" stroke-width="1"/><path d="M217.1,60.3c0,0 0.2,0 0.5,0.1c0.3,0.1 0.6,0.3 0.8,0.5c0.2,0.3 0.4,0.6 0.5,0.8c0.1,0.3 0.1,0.5 0.1,0.5c0,0 0,0 -0.1,-0.1c-0.1,0 -0.2,-0.1 -0.3,-0.2c-0.2,-0.2 -0.4,-0.4 -0.7,-0.6c-0.2,-0.2 -0.4,-0.5 -0.6,-0.7c-0.1,-0.2 -0.2,-0.3 -0.2,-0.3z" fill="#120d0b" fill-rule="nonzero" stroke="none" stroke-width="1"/><path d="M235.7,51.4c0,0 0.2,0.1 0.4,0.3c0.2,0.2 0.5,0.5 0.7,0.9c0.2,0.3 0.3,0.7 0.2,1.1c0,0.3 -0.1,0.5 -0.1,0.5c0,0 0,0 -0.1,-0.1c0,-0.1 -0.1,-0.2 -0.2,-0.3c-0.1,-0.3 -0.3,-0.6 -0.5,-0.9c-0.1,-0.3 -0.3,-0.7 -0.4,-1c0,-0.3 0,-0.5 0,-0.5z" fill="#120d0b" fill-rule="nonzero" stroke="none" stroke-width="1"/><path d="M235.5,55.2c10.2,-0.8 13.2,3.3 13.2,3.3c0,0 -4.6,-1.1 -10.1,-1.1c-15.3,-0.1 -22.1,16.3 -22.1,16.3c1.9,-14.2 10.4,-17.8 19,-18.5z" fill="#d9a64a" fill-rule="nonzero" stroke="none" stroke-width="1"/><path d="M236.2,56.4c0.1,-0.8 1.2,-2.2 1.2,-2.2c0.8,0.1 1.8,1.7 1.8,1.7c0,0.8 -1.1,2.1 -1.1,2.1c-1,-0.2 -1.9,-1.5 -1.9,-1.6z" fill="#ffb83b" fill-rule="nonzero" stroke="none" stroke-width="1"/><path d="M236.7,56.4c0.1,-0.8 0.8,-1.8 0.8,-1.8c0.5,0.2 1.4,1.3 1.4,1.3c0,0.5 -0.9,1.8 -0.9,1.8c-0.7,-0.5 -1.4,-1.3 -1.3,-1.3z" fill="#d12a2a" fill-rule="nonzero" stroke="none" stroke-width="1"/><path d="M254.9,75.1c0,0 -1.5,8.2 1.7,9.9c3.2,1.7 3.2,4.6 1.7,5.3c0,0 1.2,-1.6 -0.1,-2.6c0,0 0.6,2.2 -2.5,3.1c-3.1,0.9 -0.2,5.2 2.6,3.3c0,0 -0.6,1.2 -1.8,1.2c0,0 3,-0.3 3.3,1.5c0.3,1.7 -1.5,4.7 -6.3,2.1c0,0 2.3,0.5 3.2,-0.2c0,0 -1.1,0.2 -1.5,-0.3c0,0 5.1,-0.3 3.2,-1.6c-1.9,-1.4 -7.5,-0.2 -6.4,-3.6c1.1,-3.4 5.4,-3 4.9,-4.6c-0.6,-1.7 -3.7,-2.2 -3.7,-5c0,0 -1.1,2.9 2.4,4.4c0,0 -4.1,0.2 -3.2,-5.2c0.9,-5.4 2.5,-7.7 2.5,-7.7z" fill="#30231d" fill-rule="nonzero" stroke="none" stroke-width="1"/><path d="M253.2,83.5c0,0 0,0.2 0.1,0.4c0.1,0.3 0.2,0.6 0.5,1c0.3,0.4 0.6,0.8 1,1.1c0.2,0.2 0.5,0.3 0.7,0.5l0.4,0.2l0.4,0.3c0.2,0.2 0.5,0.5 0.7,0.8c0.2,0.3 0.2,0.8 0.1,1.1c-0.1,0.3 -0.4,0.6 -0.6,0.7c-0.2,0.2 -0.5,0.3 -0.7,0.4c-0.4,0.2 -0.8,0.3 -1.1,0.3c-0.3,0 -0.4,0 -0.4,0c0,0 0.6,-0.2 1.4,-0.7c0.4,-0.3 0.8,-0.6 0.9,-1c0.1,-0.2 0,-0.4 -0.1,-0.6c-0.1,-0.2 -0.3,-0.4 -0.5,-0.6l-0.4,-0.3l-0.4,-0.3c-0.3,-0.2 -0.5,-0.4 -0.7,-0.6c-0.4,-0.4 -0.8,-0.9 -1,-1.4c-0.2,-0.4 -0.3,-0.9 -0.3,-1.1z" fill="#120d0b" fill-rule="nonzero" stroke="none" stroke-width="1"/><path d="M256.1,96c0,0 -0.4,0.1 -0.9,0.1c-0.6,0 -1.4,0 -2.1,-0.4c-0.4,-0.2 -0.7,-0.4 -1,-0.7c-0.3,-0.3 -0.4,-0.7 -0.3,-1c0,-0.2 0,-0.3 0.1,-0.4c0,-0.1 0.1,-0.2 0.1,-0.3c0.1,-0.2 0.1,-0.2 0.1,-0.2c0,0 0,0.1 0,0.3c0,0.1 0,0.2 0,0.3c0,0.1 0.1,0.2 0.1,0.3c0,0.1 0.1,0.2 0.1,0.4c0.1,0.1 0.2,0.2 0.3,0.3c0.2,0.2 0.5,0.4 0.8,0.5c0.6,0.3 1.3,0.5 1.9,0.6c0.4,0.1 0.8,0.2 0.8,0.2z" fill="#120d0b" fill-rule="nonzero" stroke="none" stroke-width="1"/><path d="M256.6,85c0,0 -0.2,0 -0.5,-0.2c-0.1,-0.1 -0.3,-0.2 -0.4,-0.4c-0.2,-0.2 -0.3,-0.4 -0.5,-0.6c-0.1,-0.2 -0.3,-0.5 -0.4,-0.8c-0.1,-0.3 -0.2,-0.6 -0.3,-1c0,-0.3 -0.1,-0.7 -0.1,-1c0,-0.4 0,-0.7 0,-1.1c0,-0.7 0.1,-1.4 0.2,-2.1c0,-0.3 0.1,-0.6 0.2,-0.9c0.1,-0.3 0.1,-0.6 0.2,-0.8c0.3,-1 0.6,-1.7 0.6,-1.7c0,0 -0.1,0.7 -0.2,1.8c0,0.5 -0.1,1.1 -0.2,1.8c-0.1,0.6 -0.1,1.3 -0.1,2c0,0.7 0,1.4 0.1,2c0.1,0.3 0.1,0.6 0.2,0.9c0.1,0.3 0.1,0.5 0.2,0.8c0.1,0.2 0.2,0.4 0.3,0.6c0.1,0.2 0.2,0.3 0.3,0.4c0.3,0.2 0.4,0.3 0.4,0.3z" fill="#120d0b" fill-rule="nonzero" stroke="none" stroke-width="1"/><path d="M247.7,60.8c12.4,5.1 9.1,24.5 9.1,24.5c0,0 3.2,4.9 -3.5,15.5c-6.2,9.9 -24.6,3.9 -29.6,-5.9c-3.3,-6.5 -6,-22.1 2.9,-31.8c5.2,-5.6 12.7,-5.8 21.1,-2.3z" fill="#875137" fill-rule="nonzero" stroke="none" stroke-width="1"/><path d="M246.3,105.6c0,0 -1.1,0.4 -2.8,0.5c-0.8,0 -1.8,0.1 -2.9,-0.1c-0.5,0 -1.1,-0.1 -1.6,-0.2c-0.6,-0.1 -1.1,-0.2 -1.6,-0.4c-0.5,-0.2 -1.1,-0.4 -1.6,-0.5c-0.5,-0.2 -1,-0.4 -1.5,-0.6c-0.5,-0.2 -0.9,-0.5 -1.4,-0.7c-0.4,-0.2 -0.8,-0.5 -1.2,-0.7c-0.7,-0.4 -1.3,-0.9 -1.7,-1.2c-0.4,-0.3 -0.6,-0.5 -0.6,-0.5c0,0 0.2,0.1 0.7,0.4c0.2,0.1 0.5,0.3 0.8,0.4c0.3,0.2 0.6,0.3 1,0.5c0.4,0.2 0.8,0.4 1.2,0.6c0.4,0.2 0.9,0.4 1.4,0.6c0.5,0.2 1,0.4 1.5,0.6c0.5,0.2 1,0.3 1.6,0.5c0.5,0.1 1.1,0.3 1.6,0.4c0.5,0.1 1.1,0.2 1.6,0.3c1,0.1 2,0.2 2.8,0.3c1.6,-0.1 2.7,-0.2 2.7,-0.2z" fill="#613a27" fill-rule="nonzero" stroke="none" stroke-width="1"/><path d="M256.8,85.3c0,0 0.2,0.2 0.4,0.6c0.2,0.4 0.4,1 0.5,1.8c0.1,0.4 0.1,0.8 0.1,1.3c0,0.4 0,0.9 0,1.4c-0.1,0.5 -0.1,1 -0.2,1.5c-0.1,0.5 -0.2,1 -0.4,1.5c-0.1,0.5 -0.3,1 -0.5,1.5c-0.2,0.5 -0.4,0.9 -0.6,1.4c-0.4,0.9 -0.9,1.7 -1.3,2.3c-0.4,0.7 -0.8,1.2 -1,1.6c-0.3,0.4 -0.4,0.6 -0.4,0.6c0,0 0.1,-0.2 0.3,-0.6c0.2,-0.4 0.5,-1 0.8,-1.7c0.2,-0.3 0.3,-0.7 0.5,-1.1c0.2,-0.4 0.3,-0.8 0.5,-1.3c0.2,-0.4 0.4,-0.9 0.5,-1.4c0.2,-0.5 0.3,-0.9 0.5,-1.4c0.2,-0.5 0.3,-1 0.4,-1.5c0.1,-0.5 0.2,-1 0.3,-1.4c0.1,-0.9 0.2,-1.8 0.1,-2.6c0,-0.8 -0.1,-1.4 -0.3,-1.8c0,-0.5 -0.2,-0.7 -0.2,-0.7z" fill="#613a27" fill-rule="nonzero" stroke="none" stroke-width="1"/><path d="M247.4,83.3c0,0 0.4,0.6 1,1.6c0.5,1 1.2,2.3 1.8,3.6c0.1,0.3 0.3,0.7 0.4,1c0.1,0.4 0.2,0.7 0.3,1.1c0,0.4 -0.1,0.8 -0.2,1.1c-0.2,0.3 -0.4,0.5 -0.6,0.7c-0.4,0.4 -0.9,0.6 -1.2,0.7c-0.3,0.1 -0.5,0.2 -0.5,0.2c0,0 0.2,-0.1 0.4,-0.3c0.3,-0.2 0.6,-0.5 1,-0.9c0.3,-0.4 0.6,-0.9 0.5,-1.5c0,-0.3 -0.2,-0.6 -0.3,-0.9c-0.1,-0.3 -0.3,-0.7 -0.4,-1c-0.6,-1.3 -1.2,-2.6 -1.6,-3.7c-0.4,-1 -0.6,-1.7 -0.6,-1.7z" fill="#140f0b" fill-rule="nonzero" stroke="none" stroke-width="1"/><path d="M247.8,91.8c0,0 -0.1,0.1 -0.2,0.3c-0.1,0.2 -0.3,0.3 -0.5,0.5c-0.2,0.1 -0.4,0.2 -0.6,0.3c-0.1,0 -0.2,0 -0.2,0.1c-0.1,0 -0.1,0 -0.1,0c0,0 0,-0.2 0.1,-0.4c0.1,-0.2 0.3,-0.4 0.5,-0.6c0.2,-0.2 0.5,-0.2 0.7,-0.2c0.1,-0.1 0.3,0 0.3,0z" fill="#140f0b" fill-rule="nonzero" stroke="none" stroke-width="1"/><path d="M257.1,76.6c0,0 -1.4,-13 -13,-7.9c0,0 -16.1,-7.5 -14.7,15.8c0,0 -7.4,-2.3 -5.7,10.3c0,0 -9.9,-7.1 -7.1,-21.1c2.6,-12.5 12.5,-18.4 20.4,-16.2c0,0 5.1,-1.7 11,0.5c5.4,2 9.9,7.5 9.1,18.6z" fill="#30231d" fill-rule="nonzero" stroke="none" stroke-width="1"/><path d="M244.5,70.7c0,0 -0.2,-0.6 -0.5,-1.5c-0.3,-0.9 -0.7,-2.1 -1.2,-3.3c-0.5,-1.2 -1.1,-2.3 -1.6,-3.1c-0.2,-0.4 -0.4,-0.8 -0.6,-1c-0.2,-0.2 -0.2,-0.4 -0.2,-0.4c0,0 0.1,0.1 0.3,0.3c0.2,0.2 0.5,0.5 0.8,0.9c0.3,0.4 0.7,0.8 1,1.4c0.3,0.5 0.6,1.1 0.9,1.7c0.5,1.2 0.8,2.5 1,3.4c0.2,1 0.1,1.6 0.1,1.6z" fill="#875137" fill-rule="nonzero" stroke="none" stroke-width="1"/><path d="M242.9,65.9c0,0 -0.4,-0.3 -1.1,-0.6c-0.3,-0.1 -0.7,-0.3 -1.1,-0.4c-0.4,-0.1 -0.9,-0.2 -1.3,-0.2c-0.5,0 -0.9,0 -1.3,0c-0.4,0.1 -0.8,0.1 -1.2,0.2c-0.4,0.1 -0.6,0.2 -0.8,0.2c-0.2,0.1 -0.3,0.1 -0.3,0.1c0,0 0.1,-0.1 0.3,-0.2c0.2,-0.1 0.4,-0.3 0.8,-0.5c0.3,-0.2 0.7,-0.3 1.2,-0.4c0.2,0 0.5,-0.1 0.7,-0.1c0.3,0 0.5,0 0.8,0c0.5,0 1,0.1 1.5,0.3c0.4,0.2 0.8,0.4 1.1,0.6c0.4,0.6 0.7,1 0.7,1z" fill="#120d0b" fill-rule="nonzero" stroke="none" stroke-width="1"/><path d="M241.5,63.2c0,0 -0.2,-0.1 -0.5,-0.1c-0.3,-0.1 -0.7,-0.2 -1.1,-0.2c-0.4,-0.1 -0.8,-0.1 -1.1,-0.1c-0.3,0 -0.6,0 -0.6,0c0,0 0.2,-0.2 0.5,-0.3c0.2,-0.1 0.4,-0.1 0.6,-0.2c0.2,0 0.5,0 0.7,0c0.5,0.1 0.9,0.3 1.2,0.6c0.2,0.1 0.3,0.3 0.3,0.3z" fill="#120d0b" fill-rule="nonzero" stroke="none" stroke-width="1"/><path d="M239.2,59c0,0 -0.7,-0.5 -1.8,-1c-0.3,-0.1 -0.6,-0.2 -0.9,-0.3c-0.3,-0.1 -0.7,-0.2 -1.1,-0.2c-0.4,-0.1 -0.8,-0.1 -1.2,-0.1c-0.4,0 -0.8,0 -1.2,0c-0.4,0 -0.8,0 -1.2,0.1c-0.4,0.1 -0.8,0.1 -1.2,0.2c-0.4,0.1 -0.7,0.2 -1.1,0.3c-0.3,0.1 -0.7,0.2 -1,0.3c-0.6,0.2 -1.1,0.4 -1.4,0.5c-0.3,0.1 -0.5,0.2 -0.5,0.2c0,0 0.2,-0.1 0.5,-0.3c0.3,-0.2 0.8,-0.5 1.3,-0.8c0.3,-0.1 0.6,-0.3 0.9,-0.4c0.3,-0.1 0.7,-0.2 1.1,-0.4c0.4,-0.1 0.8,-0.2 1.2,-0.3c0.4,-0.1 0.9,-0.1 1.3,-0.1c0.4,0 0.9,0 1.3,0c0.4,0.1 0.8,0.1 1.2,0.2c0.4,0.1 0.8,0.2 1.1,0.4c0.4,0.1 0.7,0.3 1,0.4c1.2,0.7 1.7,1.3 1.7,1.3z" fill="#120d0b" fill-rule="nonzero" stroke="none" stroke-width="1"/><path d="M223.8,94.8c0,0 -1,-0.6 -2.3,-1.8c-0.3,-0.3 -0.6,-0.7 -1,-1c-0.3,-0.4 -0.7,-0.8 -1,-1.3c-0.3,-0.5 -0.6,-0.9 -0.9,-1.4c-0.3,-0.5 -0.6,-1 -0.8,-1.6c-0.3,-0.5 -0.4,-1.1 -0.6,-1.6c-0.2,-0.6 -0.3,-1.1 -0.5,-1.6c-0.1,-0.5 -0.2,-1.1 -0.3,-1.6c-0.1,-0.5 -0.1,-1 -0.2,-1.4c0,-0.4 -0.1,-0.8 -0.1,-1.2c0,-0.4 0,-0.7 0,-0.9c0,-0.5 0,-0.8 0,-0.8c0,0 0,0.3 0.1,0.8c0,0.3 0.1,0.6 0.1,0.9c0,0.4 0.1,0.7 0.2,1.2c0.1,0.4 0.1,0.9 0.3,1.4c0.1,0.5 0.3,1 0.4,1.5c0.2,0.5 0.3,1 0.5,1.6c0.2,0.5 0.4,1.1 0.7,1.6c0.2,0.5 0.5,1.1 0.8,1.5c0.3,0.5 0.6,1 0.8,1.4c0.6,0.9 1.2,1.7 1.7,2.4c1.2,1.2 2.1,1.9 2.1,1.9z" fill="#120d0b" fill-rule="nonzero" stroke="none" stroke-width="1"/><path d="M246.9,59.9c0,0 -0.5,-0.1 -1.1,-0.2c-0.7,-0.1 -1.6,-0.2 -2.4,-0.2c-0.4,0 -0.9,0 -1.3,0.1c-0.2,0 -0.4,0.1 -0.6,0.1c-0.2,0.1 -0.3,0.1 -0.5,0.2c-0.1,0.1 -0.3,0.1 -0.4,0.2c-0.1,0.1 -0.2,0.1 -0.3,0.2c-0.2,0.1 -0.3,0.2 -0.3,0.2c0,0 0.1,-0.1 0.2,-0.3c0.1,-0.1 0.1,-0.2 0.2,-0.3c0.1,-0.1 0.2,-0.2 0.4,-0.3c0.3,-0.2 0.7,-0.4 1.1,-0.5c0.2,0 0.5,-0.1 0.7,-0.1c0.2,0 0.5,0 0.7,0c1,0 1.9,0.3 2.5,0.5c0.7,0.1 1.1,0.4 1.1,0.4z" fill="#120d0b" fill-rule="nonzero" stroke="none" stroke-width="1"/><path d="M250.1,62.9c0,0 -0.6,-0.3 -1.4,-0.6c-0.4,-0.2 -0.9,-0.3 -1.4,-0.5c-0.5,-0.2 -1.1,-0.3 -1.7,-0.4c-0.3,-0.1 -0.6,-0.1 -0.8,-0.1c-0.3,0 -0.6,0 -0.8,0c-0.3,0 -0.5,0.1 -0.8,0.1c-0.2,0.1 -0.5,0.1 -0.7,0.2c-0.2,0.1 -0.4,0.2 -0.5,0.3c-0.2,0.1 -0.3,0.2 -0.4,0.3c-0.2,0.2 -0.3,0.2 -0.3,0.2c0,0 0.1,-0.1 0.3,-0.3c0.1,-0.1 0.2,-0.2 0.3,-0.4c0.1,-0.1 0.3,-0.3 0.5,-0.4c0.2,-0.1 0.4,-0.2 0.7,-0.3c0.3,-0.1 0.5,-0.1 0.8,-0.2c0.3,0 0.6,-0.1 0.9,0c0.3,0 0.6,0 0.9,0.1c1.2,0.2 2.4,0.8 3.1,1.3c0.8,0.3 1.3,0.7 1.3,0.7z" fill="#120d0b" fill-rule="nonzero" stroke="none" stroke-width="1"/><path d="M230.9,66.9c0,0 -0.2,0.3 -0.4,0.6c-0.3,0.4 -0.6,0.8 -1,1.3c-0.4,0.4 -0.8,0.9 -1.1,1.2c-0.2,0.2 -0.3,0.3 -0.4,0.4c-0.1,0.1 -0.2,0.1 -0.2,0.1c0,0 0.1,-0.3 0.3,-0.7c0.2,-0.4 0.5,-0.9 0.9,-1.4c0.4,-0.5 0.9,-0.9 1.3,-1.1c0.3,-0.3 0.6,-0.4 0.6,-0.4z" fill="#452f26" fill-rule="nonzero" stroke="none" stroke-width="1"/><path d="M229,67.2c0,0 -0.1,0.1 -0.2,0.3c-0.1,0.2 -0.3,0.4 -0.4,0.5c-0.2,0.2 -0.4,0.3 -0.5,0.4c-0.2,0.1 -0.3,0.2 -0.3,0.2c0,0 0,-0.2 0,-0.4c0,-0.2 0.2,-0.5 0.4,-0.7c0.2,-0.2 0.5,-0.3 0.7,-0.4c0.2,0.1 0.3,0.1 0.3,0.1z" fill="#452f26" fill-rule="nonzero" stroke="none" stroke-width="1"/><path d="M228.5,65.4c0,0 -0.2,0.4 -0.6,0.9c-0.4,0.5 -0.9,1.2 -1.5,1.8c-0.5,0.6 -1.1,1.3 -1.5,1.7c-0.2,0.2 -0.4,0.4 -0.5,0.6c-0.1,0.1 -0.2,0.2 -0.2,0.2c0,0 0.1,-0.4 0.4,-1c0.3,-0.6 0.8,-1.3 1.3,-2c0.6,-0.7 1.2,-1.2 1.7,-1.6c0.5,-0.3 0.9,-0.6 0.9,-0.6z" fill="#452f26" fill-rule="nonzero" stroke="none" stroke-width="1"/><path d="M225.5,66.8c0,0 0,0.2 -0.1,0.4c-0.1,0.2 -0.2,0.5 -0.3,0.7c-0.2,0.2 -0.4,0.4 -0.6,0.6c-0.2,0.1 -0.4,0.2 -0.4,0.2c0,0 0,-0.2 0.1,-0.4c0.1,-0.2 0.2,-0.5 0.3,-0.7c0.2,-0.2 0.4,-0.4 0.6,-0.6c0.2,-0.2 0.4,-0.2 0.4,-0.2z" fill="#452f26" fill-rule="nonzero" stroke="none" stroke-width="1"/><path d="M225.7,65.5c0,0 -0.1,0.2 -0.2,0.5c-0.2,0.3 -0.4,0.6 -0.7,0.9c-0.3,0.3 -0.6,0.6 -0.8,0.8c-0.2,0.2 -0.4,0.3 -0.4,0.3c0,0 0,-0.2 0.1,-0.5c0.1,-0.3 0.3,-0.7 0.6,-1c0.3,-0.3 0.6,-0.6 0.9,-0.7c0.3,-0.2 0.5,-0.3 0.5,-0.3z" fill="#452f26" fill-rule="nonzero" stroke="none" stroke-width="1"/><path d="M225.9,63c0,0 -0.3,0.3 -0.8,0.7c-0.4,0.4 -1,1 -1.5,1.6c-0.3,0.3 -0.5,0.6 -0.8,0.9c-0.2,0.3 -0.5,0.6 -0.7,0.8c-0.2,0.2 -0.4,0.4 -0.5,0.6c-0.1,0.1 -0.2,0.2 -0.2,0.2c0,0 0.1,-0.4 0.4,-1c0.3,-0.6 0.7,-1.3 1.3,-2c0.6,-0.7 1.2,-1.2 1.8,-1.5c0.5,-0.2 1,-0.3 1,-0.3z" fill="#452f26" fill-rule="nonzero" stroke="none" stroke-width="1"/><path d="M252,66.5c0,0 -0.3,0 -0.6,-0.1c-0.4,-0.1 -0.9,-0.2 -1.4,-0.4c-0.5,-0.2 -0.9,-0.4 -1.2,-0.5c-0.2,-0.1 -0.3,-0.2 -0.4,-0.2c-0.1,0 -0.2,-0.1 -0.2,-0.1c0,0 0.3,-0.1 0.7,-0.1c0.4,0 0.9,0.1 1.4,0.3c0.5,0.2 0.9,0.4 1.2,0.7c0.3,0.2 0.5,0.4 0.5,0.4z" fill="#452f26" fill-rule="nonzero" stroke="none" stroke-width="1"/><path d="M251.6,64.8c0,0 -0.2,0 -0.4,0c-0.2,0 -0.5,0 -0.7,-0.1c-0.5,-0.1 -0.9,-0.5 -0.9,-0.5c0,0 0.1,-0.1 0.4,-0.2c0.2,-0.1 0.5,0 0.8,0c0.3,0.1 0.5,0.2 0.7,0.4c0,0.3 0.1,0.4 0.1,0.4z" fill="#452f26" fill-rule="nonzero" stroke="none" stroke-width="1"/><path d="M251.7,62.5c0,0 -0.3,-0.1 -0.7,-0.2c-0.4,-0.1 -0.9,-0.4 -1.4,-0.6c-0.5,-0.2 -1,-0.5 -1.3,-0.6c-0.2,-0.1 -0.3,-0.2 -0.5,-0.2c-0.1,0 -0.2,-0.1 -0.2,-0.1c0,0 0.3,-0.1 0.7,-0.1c0.4,0 1,0.2 1.5,0.4c0.5,0.2 1,0.6 1.3,0.9c0.4,0.3 0.6,0.5 0.6,0.5z" fill="#452f26" fill-rule="nonzero" stroke="none" stroke-width="1"/><path d="M223.7,92.4c-5,-1.6 -6.4,-9.1 -2.2,-11.7c4.2,-2.6 6.4,3.6 6.4,3.6" fill="#875137" fill-rule="nonzero" stroke="none" stroke-width="1"/><path d="M221.5,83.3c0,0 0.1,-0.1 0.2,-0.3c0.2,-0.1 0.4,-0.4 0.8,-0.5c0.2,-0.1 0.4,-0.1 0.7,0c0.1,0 0.2,0.1 0.4,0.1c0.1,0.1 0.2,0.1 0.3,0.2c0.2,0.2 0.4,0.3 0.6,0.6c0.1,0.2 0.3,0.4 0.4,0.7c0.1,0.2 0.2,0.5 0.3,0.7c0.1,0.2 0.1,0.5 0.2,0.7c0.1,0.5 0.2,0.9 0.2,1.3c0.1,0.8 0,1.3 0,1.3c0,0 -0.2,-0.5 -0.4,-1.2c-0.1,-0.4 -0.3,-0.8 -0.4,-1.2c-0.1,-0.2 -0.2,-0.4 -0.3,-0.7c-0.1,-0.2 -0.2,-0.4 -0.3,-0.6c-0.1,-0.2 -0.2,-0.4 -0.3,-0.6c-0.1,-0.2 -0.3,-0.3 -0.4,-0.5l-0.2,-0.2c-0.1,0 -0.2,-0.1 -0.2,-0.1c-0.2,0 -0.3,-0.1 -0.5,-0.1c-0.3,0 -0.6,0.1 -0.8,0.2c-0.2,0.1 -0.3,0.2 -0.3,0.2z" fill="#613a27" fill-rule="nonzero" stroke="none" stroke-width="1"/><path d="M224.9,84.9c0,0 -0.3,0.1 -0.6,0.3c-0.3,0.2 -0.7,0.4 -1.1,0.8c-0.2,0.2 -0.3,0.4 -0.5,0.5c-0.1,0.2 -0.3,0.4 -0.4,0.5c-0.1,0.2 -0.2,0.3 -0.3,0.4c-0.1,0.1 -0.1,0.2 -0.1,0.2c0,0 0,-0.1 0,-0.2c0,-0.1 0,-0.3 0,-0.5c0.1,-0.4 0.3,-1 0.7,-1.4c0.2,-0.2 0.4,-0.4 0.7,-0.5c0.2,-0.1 0.5,-0.2 0.7,-0.2c0.6,0 0.9,0.1 0.9,0.1z" fill="#613a27" fill-rule="nonzero" stroke="none" stroke-width="1"/><path d="M229.5,75c0,0 -1.5,8.2 1.7,9.9c3.2,1.7 3.2,4.6 1.7,5.3c0,0 1.2,-1.6 -0.1,-2.6c0,0 0.6,2.2 -2.5,3.1c-3.1,0.9 -0.2,5.2 2.6,3.3c0,0 -0.6,1.2 -1.8,1.2c0,0 3,-0.3 3.3,1.5c0.3,1.8 -1.5,4.7 -6.3,2.1c0,0 2.3,0.5 3.2,-0.2c0,0 -1.1,0.2 -1.5,-0.3c0,0 5.1,-0.3 3.2,-1.6c-1.9,-1.3 -7.5,-0.2 -6.4,-3.6c1.1,-3.4 5.4,-3 4.9,-4.6c-0.6,-1.7 -3.7,-2.2 -3.7,-5c0,0 -1.1,2.9 2.4,4.4c0,0 -4.1,0.2 -3.2,-5.2c0.9,-5.4 2.5,-7.7 2.5,-7.7z" fill="#30231d" fill-rule="nonzero" stroke="none" stroke-width="1"/><path d="M227.8,83.4c0,0 0,0.2 0.1,0.4c0.1,0.3 0.2,0.6 0.5,1c0.3,0.4 0.6,0.8 1,1.1c0.2,0.2 0.5,0.3 0.7,0.5l0.4,0.2l0.4,0.3c0.2,0.2 0.5,0.5 0.7,0.8c0.2,0.3 0.2,0.8 0.1,1.1c-0.1,0.3 -0.4,0.6 -0.6,0.7c-0.2,0.2 -0.5,0.3 -0.7,0.4c-0.4,0.2 -0.8,0.3 -1.1,0.3c-0.3,0 -0.4,0 -0.4,0c0,0 0.6,-0.2 1.4,-0.7c0.4,-0.3 0.8,-0.6 0.9,-1c0.1,-0.2 0,-0.4 -0.1,-0.6c-0.1,-0.2 -0.3,-0.4 -0.5,-0.6l-0.4,-0.3l-0.4,-0.3c-0.3,-0.2 -0.5,-0.4 -0.7,-0.6c-0.4,-0.4 -0.8,-0.9 -1,-1.4c-0.2,-0.4 -0.3,-0.9 -0.3,-1.1c-0.1,-0.1 0,-0.2 0,-0.2z" fill="#120d0b" fill-rule="nonzero" stroke="none" stroke-width="1"/><path d="M230.6,95.9c0,0 -0.4,0.1 -0.9,0.1c-0.6,0 -1.4,0 -2.1,-0.4c-0.4,-0.2 -0.7,-0.4 -1,-0.7c-0.3,-0.3 -0.4,-0.7 -0.3,-1c0,-0.2 0,-0.3 0.1,-0.4c0,-0.1 0.1,-0.2 0.1,-0.3c0.1,-0.2 0.1,-0.2 0.1,-0.2c0,0 0,0.1 0,0.3c0,0.1 0,0.2 0,0.3c0,0.1 0.1,0.2 0.1,0.3c0,0.1 0.1,0.2 0.1,0.4c0.1,0.1 0.2,0.2 0.3,0.3c0.2,0.2 0.5,0.4 0.8,0.5c0.6,0.3 1.3,0.5 1.9,0.6c0.4,0.1 0.8,0.2 0.8,0.2z" fill="#120d0b" fill-rule="nonzero" stroke="none" stroke-width="1"/><path d="M231.2,84.9c0,0 -0.2,0 -0.5,-0.2c-0.1,-0.1 -0.3,-0.2 -0.4,-0.4c-0.2,-0.2 -0.3,-0.4 -0.5,-0.6c-0.1,-0.2 -0.3,-0.5 -0.4,-0.8c-0.1,-0.3 -0.2,-0.6 -0.3,-1c0,-0.3 -0.1,-0.7 -0.1,-1c0,-0.4 0,-0.7 0,-1.1c0,-0.7 0.1,-1.4 0.2,-2.1c0,-0.3 0.1,-0.6 0.2,-0.9c0.1,-0.3 0.1,-0.6 0.2,-0.8c0.3,-1 0.6,-1.7 0.6,-1.7c0,0 0,0.7 -0.2,1.7c0,0.5 -0.1,1.1 -0.2,1.8c-0.1,0.6 -0.1,1.3 -0.1,2c0,0.7 0,1.4 0.1,2c0.1,0.3 0.1,0.6 0.2,0.9c0.1,0.3 0.1,0.5 0.2,0.8c0.1,0.2 0.2,0.4 0.3,0.6c0.1,0.2 0.2,0.3 0.3,0.4c0.2,0.3 0.4,0.4 0.4,0.4z" fill="#120d0b" fill-rule="nonzero" stroke="none" stroke-width="1"/><g fill="#0b0806" fill-rule="nonzero" stroke="none" stroke-width="1"><path d="M249.7,97.1c0,0 -0.1,0.1 -0.3,0.2c-0.2,0.1 -0.5,0.3 -0.9,0.4c-0.4,0.1 -0.9,0.3 -1.4,0.4c-0.5,0.1 -1.1,0.1 -1.7,0.1c-1.1,0 -2.3,-0.2 -3.1,-0.5c-0.4,-0.1 -0.7,-0.3 -1,-0.4c-0.2,-0.1 -0.4,-0.2 -0.4,-0.2c0,0 0.1,0 0.4,0c0.2,0 0.6,0.1 1,0.1c0.4,0.1 0.9,0.1 1.4,0.1c0.5,0 1.1,0.1 1.6,0.1c1.1,0 2.2,-0.1 3,-0.2c0.9,0.1 1.4,-0.1 1.4,-0.1z"/><path d="M242.3,79.4c0,0 -1.8,-0.6 -3.6,-0.4c-0.4,0 -0.9,0.1 -1.3,0.2c-0.4,0.1 -0.8,0.2 -1.1,0.4c-0.2,0.1 -0.3,0.1 -0.4,0.2c-0.1,0.1 -0.2,0.1 -0.3,0.2c-0.2,0.1 -0.3,0.1 -0.3,0.1c0,0 0.1,-0.1 0.2,-0.2c0.2,-0.1 0.4,-0.4 0.7,-0.6c0.2,-0.1 0.3,-0.2 0.5,-0.3c0.2,-0.1 0.4,-0.2 0.6,-0.3c0.2,-0.1 0.4,-0.2 0.7,-0.2c0.2,0 0.5,-0.1 0.7,-0.1c1,-0.1 2,0.1 2.6,0.4c0.6,0.3 1,0.6 1,0.6z"/><path d="M239.76364,85.61863c-0.55228,-0.00306 -0.99404,-1.08006 -0.98669,-2.40555c0.00735,-1.32548 0.46103,-2.39752 1.01331,-2.39445c0.55228,0.00306 0.99404,1.08006 0.98669,2.40555c-0.00735,1.32548 -0.46103,2.39752 -1.01331,2.39445z"/><path d="M242,81.8c0,0 -0.4,-0.2 -0.9,-0.4c-0.6,-0.2 -1.3,-0.4 -2.1,-0.3c-0.4,0 -0.7,0.2 -1.1,0.3c-0.2,0.1 -0.3,0.2 -0.5,0.2c-0.1,0.1 -0.3,0.2 -0.4,0.3c-0.3,0.1 -0.5,0.3 -0.6,0.4c-0.2,0.1 -0.2,0.2 -0.2,0.2c0,0 0,-0.1 0.2,-0.3c0.1,-0.1 0.2,-0.4 0.5,-0.6c0.2,-0.3 0.5,-0.5 0.9,-0.7c0.2,-0.1 0.4,-0.2 0.6,-0.3c0.2,0 0.4,-0.1 0.7,-0.1c0.2,0 0.5,0 0.7,0c0.2,0 0.4,0.1 0.6,0.1c0.4,0.1 0.8,0.3 1,0.5c0.4,0.4 0.6,0.7 0.6,0.7z"/><path d="M251.88585,85.31377c-0.55228,-0.00306 -0.99404,-1.08006 -0.98669,-2.40555c0.00735,-1.32548 0.46103,-2.39752 1.01331,-2.39445c0.55228,0.00306 0.99404,1.08006 0.98669,2.40555c-0.00735,1.32548 -0.46103,2.39752 -1.01331,2.39445z"/><path d="M254.2,81.6c0,0 -0.3,-0.2 -0.8,-0.4c-0.2,-0.1 -0.5,-0.2 -0.9,-0.3c-0.3,-0.1 -0.6,-0.1 -1,0c-0.3,0 -0.7,0.1 -1,0.3c-0.1,0.1 -0.3,0.1 -0.4,0.2c-0.1,0.1 -0.3,0.2 -0.4,0.2c-0.2,0.1 -0.4,0.3 -0.6,0.4l-0.1,0.1c0,0 0,-0.1 0.1,-0.2c0.1,-0.1 0.2,-0.4 0.4,-0.6c0.2,-0.2 0.5,-0.5 0.8,-0.7c0.2,-0.1 0.3,-0.2 0.5,-0.3c0.2,-0.1 0.4,-0.1 0.6,-0.1c0.4,0 0.8,0 1.2,0.1c0.4,0.1 0.7,0.3 0.9,0.5c0.6,0.4 0.7,0.8 0.7,0.8z"/><path d="M254.8,79.4c0,0 -1.6,-0.7 -3.1,-0.6c-0.8,0 -1.5,0.2 -2.1,0.4c-0.3,0.1 -0.5,0.2 -0.7,0.3c-0.2,0.1 -0.3,0.1 -0.3,0.1c0,0 0.1,-0.1 0.2,-0.2c0.1,-0.1 0.3,-0.3 0.6,-0.5c0.1,-0.1 0.3,-0.2 0.5,-0.3c0.2,-0.1 0.3,-0.2 0.5,-0.2c0.2,-0.1 0.4,-0.1 0.6,-0.2c0.2,0 0.4,-0.1 0.7,-0.1c0.4,0 0.9,0.1 1.3,0.2c0.4,0.1 0.7,0.3 1,0.5c0.5,0.2 0.8,0.6 0.8,0.6z"/></g></g></g></svg>